<svg width="250" height="250" version="1.1" xmlns="http://www.w3.org/2000/svg" desc="Created with imagetracer.js version 1.2.6" ><path fill="rgb(0,0,0)" stroke="rgb(0,0,0)" stroke-width="1" opacity="0" d="M 0 0 L 250 0 L 250 250 L 0 250 L 0 0 Z M 70 59 L 70 133 L 71 134 L 71 138 L 73 144 L 78 152 L 89 160 L 104 165 L 110 165 L 110 174 L 130 174 L 130 164 L 138 162 L 150 155 L 156 148 L 157 146 L 169 146 L 169 130 L 162 130 L 162 110 L 170 110 L 170 94 L 163 94 L 162 94 L 162 59 L 135 59 L 135 94 L 110 94 L 110 142 L 108 142 L 104 140 L 100 137 L 97 130 L 97 59 L 70 59 Z " /><path fill="rgb(0,0,0)" stroke="rgb(0,0,0)" stroke-width="1" opacity="0" d="M 130 110 L 134.5 110 L 135 110.5 L 135 128.5 Q 133.81 131 130 130 L 130 110 Z " /><path fill="rgb(85,103,138)" stroke="rgb(85,103,138)" stroke-width="1" opacity="1" d="M 71.5 61 L 72 127.5 L 71 127.5 L 71.5 61 Z " /><path fill="rgb(85,103,138)" stroke="rgb(85,103,138)" stroke-width="1" opacity="1" d="M 160.5 61 L 161 93.5 L 160 93.5 L 160.5 61 Z " /><path fill="rgb(85,103,138)" stroke="rgb(85,103,138)" stroke-width="1" opacity="1" d="M 74 63 L 92 63.5 L 75 64 L 74.5 130 L 74 63 Z " /><path fill="rgb(85,103,138)" stroke="rgb(85,103,138)" stroke-width="1" opacity="1" d="M 140.5 63 L 158 63 L 158 93.5 L 157 93.5 L 157 64 L 140.5 64 L 140.5 63 Z " /><path fill="rgb(85,103,138)" stroke="rgb(85,103,138)" stroke-width="1" opacity="1" d="M 90.5 65 L 91 122.5 L 90 122.5 L 90.5 65 Z " /><path fill="rgb(85,103,138)" stroke="rgb(85,103,138)" stroke-width="1" opacity="1" d="M 141.5 65 L 142 93.5 L 141 93.5 L 141.5 65 Z " /><path fill="rgb(85,103,138)" stroke="rgb(85,103,138)" stroke-width="1" opacity="1" d="M 141.5 110 L 142 121.5 L 141 121.5 L 141.5 110 Z " /><path fill="rgb(85,103,138)" stroke="rgb(85,103,138)" stroke-width="1" opacity="1" d="M 157.5 110 L 158 128.5 L 157 128.5 L 157.5 110 Z " /><path fill="rgb(85,103,138)" stroke="rgb(85,103,138)" stroke-width="1" opacity="1" d="M 160.5 110 L 161 127.5 L 160 127.5 L 160.5 110 Z " /><path fill="rgb(85,103,138)" stroke="rgb(85,103,138)" stroke-width="1" opacity="1" d="M 139.5 124 L 140 127.5 L 139 127.5 L 139.5 124 Z " /><path fill="rgb(85,103,138)" stroke="rgb(85,103,138)" stroke-width="1" opacity="1" d="M 92.5 125 L 93 128.5 L 92 128.5 L 92.5 125 Z " /><path fill="rgb(85,103,138)" stroke="rgb(85,103,138)" stroke-width="1" opacity="1" d="M 136.5 126 L 137 128.5 L 136 128.5 L 136.5 126 Z " /><path fill="rgb(85,103,138)" stroke="rgb(85,103,138)" stroke-width="1" opacity="1" d="M 95.5 127 L 96 129.5 L 95 129.5 L 95.5 127 Z " /><path fill="rgb(85,103,138)" stroke="rgb(85,103,138)" stroke-width="1" opacity="1" d="M 140.5 129 L 140.5 130 L 140.5 129 Z " /><path fill="rgb(85,103,138)" stroke="rgb(85,103,138)" stroke-width="1" opacity="1" d="M 91.5 130 L 91.5 131 L 91.5 130 Z " /><path fill="rgb(85,103,138)" stroke="rgb(85,103,138)" stroke-width="1" opacity="1" d="M 76.5 131 L 77 132.5 L 76 132.5 L 76.5 131 Z " /><path fill="rgb(85,103,138)" stroke="rgb(85,103,138)" stroke-width="1" opacity="1" d="M 93.5 132 L 93.5 133 L 93.5 132 Z " /><path fill="rgb(85,103,138)" stroke="rgb(85,103,138)" stroke-width="1" opacity="1" d="M 96.5 132 L 96.5 133 L 96.5 132 Z " /><path fill="rgb(85,103,138)" stroke="rgb(85,103,138)" stroke-width="1" opacity="1" d="M 72.5 133 L 73 134.5 L 72 134.5 L 72.5 133 Z " /><path fill="rgb(85,103,138)" stroke="rgb(85,103,138)" stroke-width="1" opacity="1" d="M 75.5 134 L 76 135.5 L 75 135.5 L 75.5 134 Z " /><path fill="rgb(85,103,138)" stroke="rgb(85,103,138)" stroke-width="1" opacity="1" d="M 92.5 134 L 92.5 135 L 92.5 134 Z " /><path fill="rgb(85,103,138)" stroke="rgb(85,103,138)" stroke-width="1" opacity="1" d="M 94.5 135 Q 96 136 93.5 137 Q 92 136 94.5 135 Z " /><path fill="rgb(85,103,138)" stroke="rgb(85,103,138)" stroke-width="1" opacity="1" d="M 97.5 135 L 97.5 136 L 97.5 135 Z " /><path fill="rgb(85,103,138)" stroke="rgb(85,103,138)" stroke-width="1" opacity="1" d="M 77.5 136 L 77.5 137 L 77.5 136 Z " /><path fill="rgb(85,103,138)" stroke="rgb(85,103,138)" stroke-width="1" opacity="1" d="M 73.5 137 L 74 138.5 L 73 138.5 L 73.5 137 Z " /><path fill="rgb(85,103,138)" stroke="rgb(85,103,138)" stroke-width="1" opacity="1" d="M 95.5 137 Q 97 138 94.5 139 Q 93 138 95.5 137 Z " /><path fill="rgb(85,103,138)" stroke="rgb(85,103,138)" stroke-width="1" opacity="1" d="M 76.5 138 L 76.5 139 L 76.5 138 Z " /><path fill="rgb(85,103,138)" stroke="rgb(85,103,138)" stroke-width="1" opacity="1" d="M 99.5 138 L 102 140.5 L 101.5 141 L 99 138.5 L 99.5 138 Z " /><path fill="rgb(85,103,138)" stroke="rgb(85,103,138)" stroke-width="1" opacity="1" d="M 78.5 139 L 78.5 140 L 78.5 139 Z " /><path fill="rgb(85,103,138)" stroke="rgb(85,103,138)" stroke-width="1" opacity="1" d="M 97.5 140 L 100 142.5 L 98.5 144 L 96 141.5 L 97.5 140 Z M 98 141 L 98 142 L 98 141 Z M 99 142 L 99 143 L 99 142 Z " /><path fill="rgb(85,103,138)" stroke="rgb(85,103,138)" stroke-width="1" opacity="1" d="M 74.5 141 L 74.5 142 L 74.5 141 Z " /><path fill="rgb(85,103,138)" stroke="rgb(85,103,138)" stroke-width="1" opacity="1" d="M 77.5 141 L 77.5 142 L 77.5 141 Z " /><path fill="rgb(85,103,138)" stroke="rgb(85,103,138)" stroke-width="1" opacity="1" d="M 79.5 141 L 79.5 142 L 79.5 141 Z " /><path fill="rgb(85,103,138)" stroke="rgb(85,103,138)" stroke-width="1" opacity="1" d="M 104.5 142 L 104.5 143 L 104.5 142 Z " /><path fill="rgb(85,103,138)" stroke="rgb(85,103,138)" stroke-width="1" opacity="1" d="M 75.5 143 L 75.5 144 L 75.5 143 Z " /><path fill="rgb(85,103,138)" stroke="rgb(85,103,138)" stroke-width="1" opacity="1" d="M 80.5 143 Q 82 144 79.5 145 Q 78 144 80.5 143 Z " /><path fill="rgb(85,103,138)" stroke="rgb(85,103,138)" stroke-width="1" opacity="1" d="M 106.5 143 L 108 143.5 L 106.5 144 L 106.5 143 Z " /><path fill="rgb(85,103,138)" stroke="rgb(85,103,138)" stroke-width="1" opacity="1" d="M 102.5 144 Q 104 145 101.5 146 Q 100 145 102.5 144 Z " /><path fill="rgb(85,103,138)" stroke="rgb(85,103,138)" stroke-width="1" opacity="1" d="M 76.5 145 L 76.5 146 L 76.5 145 Z " /><path fill="rgb(85,103,138)" stroke="rgb(85,103,138)" stroke-width="1" opacity="1" d="M 81.5 145 Q 84.5 146.5 81.5 148 Q 78.5 146.5 81.5 145 Z M 82 146 L 82 147 L 82 146 Z " /><path fill="rgb(85,103,138)" stroke="rgb(85,103,138)" stroke-width="1" opacity="1" d="M 104.5 145 L 104.5 146 L 104.5 145 Z " /><path fill="rgb(85,103,138)" stroke="rgb(85,103,138)" stroke-width="1" opacity="1" d="M 107.5 146 L 107.5 147 L 107.5 146 Z " /><path fill="rgb(85,103,138)" stroke="rgb(85,103,138)" stroke-width="1" opacity="1" d="M 129.5 146 L 130 157 L 134 158.5 L 132.5 159 Q 131.58 157.25 129 158 L 129.5 146 Z " /><path fill="rgb(85,103,138)" stroke="rgb(85,103,138)" stroke-width="1" opacity="1" d="M 148.5 146 L 149.5 147 L 151 146.5 L 149.5 148 Q 147 147 148.5 146 Z " /><path fill="rgb(85,103,138)" stroke="rgb(85,103,138)" stroke-width="1" opacity="1" d="M 77.5 147 L 80 149.5 L 79.5 150 L 77 147.5 L 77.5 147 Z " /><path fill="rgb(85,103,138)" stroke="rgb(85,103,138)" stroke-width="1" opacity="1" d="M 105.5 147 L 105.5 148 L 105.5 147 Z " /><path fill="rgb(85,103,138)" stroke="rgb(85,103,138)" stroke-width="1" opacity="1" d="M 153.5 147 Q 155 148 152.5 149 Q 151 148 153.5 147 Z " /><path fill="rgb(85,103,138)" stroke="rgb(85,103,138)" stroke-width="1" opacity="1" d="M 108.5 148 L 110 148.5 L 108.5 149 L 108.5 148 Z " /><path fill="rgb(85,103,138)" stroke="rgb(85,103,138)" stroke-width="1" opacity="1" d="M 144.5 150 L 144.5 153 Q 141.5 151.5 144.5 150 Z " /><path fill="rgb(85,103,138)" stroke="rgb(85,103,138)" stroke-width="1" opacity="1" d="M 84.5 151 L 84.5 152 L 84.5 151 Z " /><path fill="rgb(85,103,138)" stroke="rgb(85,103,138)" stroke-width="1" opacity="1" d="M 87.5 151 Q 90.5 152.5 87.5 154 L 87.5 151 Z " /><path fill="rgb(85,103,138)" stroke="rgb(85,103,138)" stroke-width="1" opacity="1" d="M 140.5 153 Q 143.5 154.5 140.5 156 L 140.5 153 Z " /><path fill="rgb(85,103,138)" stroke="rgb(85,103,138)" stroke-width="1" opacity="1" d="M 91.5 154 Q 93 155 90.5 156 Q 89 155 91.5 154 Z " /><path fill="rgb(85,103,138)" stroke="rgb(85,103,138)" stroke-width="1" opacity="1" d="M 138.5 154 L 138.5 155 L 138.5 154 Z " /><path fill="rgb(85,103,138)" stroke="rgb(85,103,138)" stroke-width="1" opacity="1" d="M 146.5 154 L 146.5 155 L 146.5 154 Z " /><path fill="rgb(85,103,138)" stroke="rgb(85,103,138)" stroke-width="1" opacity="1" d="M 85.5 155 L 85.5 156 L 85.5 155 Z " /><path fill="rgb(85,103,138)" stroke="rgb(85,103,138)" stroke-width="1" opacity="1" d="M 136.5 155 Q 139 156 137.5 157 Q 135 156 136.5 155 Z " /><path fill="rgb(85,103,138)" stroke="rgb(85,103,138)" stroke-width="1" opacity="1" d="M 92.5 156 L 92.5 157 L 92.5 156 Z " /><path fill="rgb(85,103,138)" stroke="rgb(85,103,138)" stroke-width="1" opacity="1" d="M 96.5 156 L 96.5 157 L 96.5 156 Z " /><path fill="rgb(85,103,138)" stroke="rgb(85,103,138)" stroke-width="1" opacity="1" d="M 133.5 156 L 133.5 157 L 133.5 156 Z " /><path fill="rgb(85,103,138)" stroke="rgb(85,103,138)" stroke-width="1" opacity="1" d="M 143.5 156 Q 145 157 142.5 158 Q 141 157 143.5 156 Z " /><path fill="rgb(85,103,138)" stroke="rgb(85,103,138)" stroke-width="1" opacity="1" d="M 88.5 157 L 88.5 158 L 88.5 157 Z " /><path fill="rgb(85,103,138)" stroke="rgb(85,103,138)" stroke-width="1" opacity="1" d="M 94.5 157 L 94.5 158 L 94.5 157 Z " /><path fill="rgb(85,103,138)" stroke="rgb(85,103,138)" stroke-width="1" opacity="1" d="M 99.5 157 L 99.5 158 L 99.5 157 Z " /><path fill="rgb(85,103,138)" stroke="rgb(85,103,138)" stroke-width="1" opacity="1" d="M 135.5 157 L 135.5 158 L 135.5 157 Z " /><path fill="rgb(85,103,138)" stroke="rgb(85,103,138)" stroke-width="1" opacity="1" d="M 90.5 158 L 90.5 159 L 90.5 158 Z " /><path fill="rgb(85,103,138)" stroke="rgb(85,103,138)" stroke-width="1" opacity="1" d="M 97.5 158 L 97.5 159 L 97.5 158 Z " /><path fill="rgb(85,103,138)" stroke="rgb(85,103,138)" stroke-width="1" opacity="1" d="M 103.5 158 L 105 158.5 L 103.5 159 L 103.5 158 Z " /><path fill="rgb(85,103,138)" stroke="rgb(85,103,138)" stroke-width="1" opacity="1" d="M 140.5 158 L 140.5 159 L 140.5 158 Z " /><path fill="rgb(85,103,138)" stroke="rgb(85,103,138)" stroke-width="1" opacity="1" d="M 92.5 159 L 92.5 160 L 92.5 159 Z " /><path fill="rgb(85,103,138)" stroke="rgb(85,103,138)" stroke-width="1" opacity="1" d="M 100.5 159 L 102 159.5 L 100.5 160 L 100.5 159 Z " /><path fill="rgb(85,103,138)" stroke="rgb(85,103,138)" stroke-width="1" opacity="1" d="M 129.5 159 L 130 161.5 L 129 161.5 L 129.5 159 Z " /><path fill="rgb(85,103,138)" stroke="rgb(85,103,138)" stroke-width="1" opacity="1" d="M 137.5 159 L 137.5 160 L 137.5 159 Z " /><path fill="rgb(85,103,138)" stroke="rgb(85,103,138)" stroke-width="1" opacity="1" d="M 94.5 160 L 94.5 161 L 94.5 160 Z " /><path fill="rgb(85,103,138)" stroke="rgb(85,103,138)" stroke-width="1" opacity="1" d="M 105.5 160 L 110 160.5 L 105.5 161 L 105.5 160 Z " /><path fill="rgb(85,103,138)" stroke="rgb(85,103,138)" stroke-width="1" opacity="1" d="M 135.5 160 L 135.5 161 L 135.5 160 Z " /><path fill="rgb(85,103,138)" stroke="rgb(85,103,138)" stroke-width="1" opacity="1" d="M 97.5 161 L 99 161.5 L 97.5 162 L 97.5 161 Z " /><path fill="rgb(85,103,138)" stroke="rgb(85,103,138)" stroke-width="1" opacity="1" d="M 131.5 161 L 133 161.5 L 131.5 162 L 131.5 161 Z " /><path fill="rgb(85,103,138)" stroke="rgb(85,103,138)" stroke-width="1" opacity="1" d="M 101.5 162 L 103 162.5 L 101.5 163 L 101.5 162 Z " /><path fill="rgb(85,103,138)" stroke="rgb(85,103,138)" stroke-width="1" opacity="1" d="M 106.5 163 L 110 163.5 L 106.5 164 L 106.5 163 Z " /><path fill="rgb(30,55,101)" stroke="rgb(30,55,101)" stroke-width="1" opacity="1" d="M 72 61 L 94.5 61 L 95 61.5 L 95 129.5 L 97 135.5 L 101.5 141 L 106.5 144 L 110 144 L 110 147 L 108.5 147 L 101.5 144 L 96 138.5 L 93 131.5 L 93 125.5 L 92 124.5 L 92 63 L 74.5 63 L 74 63.5 L 74 129.5 L 75 130.5 L 75 135.5 L 77 141.5 L 84 150.5 L 84 152 L 85.5 152 L 94.5 158 L 100.5 160 L 110 161 L 109.5 163 L 103.5 163 L 102.5 162 L 95.5 161 L 87.5 157 L 80 150.5 L 74 140.5 L 74 137.5 L 72 132.5 L 72 61 Z " /><path fill="rgb(30,55,101)" stroke="rgb(30,55,101)" stroke-width="1" opacity="1" d="M 137 61 L 160 61 L 160 94 L 158 93.5 L 158 63 L 140 63 L 140 93.5 Q 139.96 94.38 137 94 L 137 61 Z " /><path fill="rgb(30,55,101)" stroke="rgb(30,55,101)" stroke-width="1" opacity="1" d="M 76 65 L 89.5 65 L 90 65.5 L 90 122.5 L 91 123.5 L 91 130.5 Q 92.75 131.25 92 134.5 L 98.5 144 Q 103.28 148.17 110 149 L 110 159 L 105.5 159 L 90.5 154 L 83 147.5 L 78 138.5 L 77 131.5 L 76 130.5 L 76 65 Z " /><path fill="rgb(30,55,101)" stroke="rgb(30,55,101)" stroke-width="1" opacity="1" d="M 142 65 L 156 65 L 156 94 L 142 94 L 142 65 Z " /><path fill="rgb(30,55,101)" stroke="rgb(30,55,101)" stroke-width="1" opacity="1" d="M 137 110 Q 139.96 109.62 140 110.5 L 140 123.5 L 139 124.5 L 139 130 L 136 129.5 L 137 128.5 L 137 110 Z " /><path fill="rgb(30,55,101)" stroke="rgb(30,55,101)" stroke-width="1" opacity="1" d="M 142 110 L 156 110 L 156 130 L 141 130 L 141 122.5 L 142 121.5 L 142 110 Z " /><path fill="rgb(30,55,101)" stroke="rgb(30,55,101)" stroke-width="1" opacity="1" d="M 158 110 L 160 110.5 L 160 130 L 157 129.5 L 158 128.5 L 158 110 Z " /><path fill="rgb(30,55,101)" stroke="rgb(30,55,101)" stroke-width="1" opacity="1" d="M 130 146 L 147.5 146 L 148 147.5 Q 141.48 155.17 130 157 L 130 146 Z " /><path fill="rgb(30,55,101)" stroke="rgb(30,55,101)" stroke-width="1" opacity="1" d="M 151.5 146 L 154 146.5 L 147.5 154 L 139.5 159 L 130.5 162 L 130 159 L 133.5 159 L 138.5 156 L 140.5 156 L 151.5 146 Z " /><path fill="rgb(226,200,200)" stroke="rgb(226,200,200)" stroke-width="1" opacity="0.8862745098039215" d="M 70 59 L 97 59 L 97 129.5 L 100 136.5 L 103.5 140 L 107.5 142 L 110 142 L 110 94 L 135 94 L 135 59 L 162 59 L 162 93.5 L 162.5 94 L 170 94 L 170 110 L 162 110 L 162 130 L 169 130 L 169 146 L 156.5 146 L 156 147.5 L 149.5 155 L 137.5 162 L 130 164 L 130 174 L 110 174 L 110 165 L 103.5 165 L 88.5 160 L 78 151.5 L 73 143.5 L 71 137.5 L 71 133.5 L 70 132.5 L 70 59 Z M 71 61 L 71 128 L 72 129 L 72 135 Q 74 135 73 139 L 77 148 L 89 158 L 98 162 L 106 163 L 107 164 L 110 164 L 110 160 L 103 160 Q 102 158 99 159 L 87 153 L 78 143 L 75 134 L 75 65 L 76 64 L 92 64 L 92 129 L 93 130 L 94 136 L 97 141 L 103 145 L 108 147 Q 112 148 110 144 L 104 142 L 98 137 L 96 132 L 96 128 L 95 127 L 95 61 L 71 61 Z M 137 61 L 137 94 Q 140 94 140 94 L 140 64 L 157 64 L 157 94 Q 157 95 161 94 L 161 61 L 137 61 Z M 76 65 L 76 133 L 81 146 L 92 155 L 104 159 L 110 159 L 110 148 L 107 148 L 101 145 L 95 140 L 91 130 L 91 66 L 91 65 L 76 65 Z M 141 65 L 141 94 L 156 94 L 156 65 L 141 65 Z M 111 95 L 111 173 L 128 173 L 128 145 L 167 145 L 167 131 L 130 131 L 128 130 L 128 109 L 169 109 L 169 96 L 169 95 L 111 95 Z M 130 110 L 130 130 Q 134 131 135 129 L 135 111 L 135 110 L 130 110 Z M 137 110 L 137 126 L 136 127 Q 135 132 139 130 L 140 128 L 140 111 Q 140 110 137 110 Z M 141 110 L 141 129 L 140 130 L 156 130 L 156 110 L 141 110 Z M 157 110 L 157 130 Q 157 130 160 130 L 161 128 L 161 111 Q 161 110 157 110 Z M 129 146 L 129 158 L 132 158 L 141 154 L 149 147 L 129 146 Z M 151 146 L 149 149 L 140 156 L 138 156 L 132 159 Q 127 158 129 162 L 133 162 L 143 158 L 154 148 Q 155 144 151 146 Z " /><path fill="rgb(226,200,200)" stroke="rgb(226,200,200)" stroke-width="1" opacity="0.8862745098039215" d="M 112 97 L 114 97.5 L 113 98.5 L 113 170 L 126 170 L 126 142 L 164.5 142 L 165 141.5 L 165 133 L 126 133 L 126 106 L 165.5 106 L 166 105.5 L 166 97.5 L 167 97.5 L 167 106.5 L 166.5 107 L 127 107 L 127 132 L 164.5 132 L 166 133.5 L 166 142.5 L 165.5 143 L 127 143 L 127 171 L 112 171 L 112 97 Z " /><path fill="rgb(220,70,51)" stroke="rgb(220,70,51)" stroke-width="1" opacity="1" d="M 111 95 L 168.5 95 L 169 95.5 L 169 109 L 128 109 L 128 129.5 L 129.5 131 L 167 131 L 167 145 L 128 145 L 128 173 L 111 173 L 111 95 Z M 112 97 L 112 171 L 127 171 L 127 143 L 166 143 L 166 143 L 166 134 L 165 134 L 165 142 L 165 142 L 126 142 L 126 170 L 113 170 L 113 99 L 114 98 L 112 97 Z M 167 97 L 166 106 L 166 106 L 126 106 L 126 133 L 165 133 L 127 132 L 127 107 L 167 107 L 167 97 Z " /></svg>