<svg width="500" height="500" version="1.1" xmlns="http://www.w3.org/2000/svg" desc="Created with imagetracer.js version 1.2.6" ><path fill="rgb(0,0,0)" stroke="rgb(0,0,0)" stroke-width="1" opacity="0" d="M 0 0 L 500 0 L 500 500 L 0 500 L 0 0 Z M 140 118 L 140 259 L 141 260 L 141 267 Q 143 268 142 272 L 143 273 L 143 276 L 145 282 L 150 293 L 157 303 Q 168 315 184 322 L 186 322 L 195 326 L 202 327 L 203 328 Q 207 327 209 329 L 217 329 L 218 330 Q 220 330 220 331 L 220 346 L 259 346 L 259 327 L 266 326 L 267 325 L 270 325 L 273 323 L 278 322 L 295 312 L 309 298 L 311 294 L 314 291 L 337 291 L 337 259 L 323 259 Q 322 256 324 256 L 324 219 L 339 219 L 339 187 L 325 187 L 324 187 L 324 118 L 271 118 L 271 187 L 220 187 L 220 285 L 218 284 L 215 284 L 204 277 Q 199 272 196 266 L 195 260 L 194 259 L 194 255 L 193 254 L 193 118 L 140 118 Z " /><path fill="rgb(0,0,0)" stroke="rgb(0,0,0)" stroke-width="1" opacity="0" d="M 259 219 L 271 219 L 271 251.5 L 270 252.5 L 270 256.5 L 269 259 L 259.5 259 L 259 258.5 L 259 219 Z " /><path fill="rgb(83,102,137)" stroke="rgb(83,102,137)" stroke-width="1" opacity="1" d="M 142.5 121 L 143 249.5 L 142 249.5 L 142.5 121 Z " /><path fill="rgb(83,102,137)" stroke="rgb(83,102,137)" stroke-width="1" opacity="1" d="M 321.5 121 L 322 186.5 Q 320.75 189.25 315.5 188 L 315.5 187 Q 320.88 187.62 321 186.5 L 321.5 121 Z " /><path fill="rgb(83,102,137)" stroke="rgb(83,102,137)" stroke-width="1" opacity="1" d="M 148.5 127 L 149 249.5 L 148 249.5 L 148.5 127 Z " /><path fill="rgb(83,102,137)" stroke="rgb(83,102,137)" stroke-width="1" opacity="1" d="M 151.5 129 L 181.5 129 L 182 129.5 L 182 250.5 L 181 250.5 L 181 130.5 L 180.5 130 L 151.5 130 L 151.5 129 Z " /><path fill="rgb(83,102,137)" stroke="rgb(83,102,137)" stroke-width="1" opacity="1" d="M 282 129 L 313 129 L 313 186.5 L 311.5 188 L 283.5 188 L 282 186.5 L 282 129 Z M 283 130 L 283 187 L 312 187 L 312 130 L 283 130 Z " /><path fill="rgb(83,102,137)" stroke="rgb(83,102,137)" stroke-width="1" opacity="1" d="M 274.5 187 L 280 187.5 L 274.5 188 L 274.5 187 Z " /><path fill="rgb(83,102,137)" stroke="rgb(83,102,137)" stroke-width="1" opacity="1" d="M 274.5 218 L 280 218.5 L 274.5 219 L 274.5 218 Z " /><path fill="rgb(83,102,137)" stroke="rgb(83,102,137)" stroke-width="1" opacity="1" d="M 282 218 L 313 218 L 313 254.5 L 312 254.5 L 312 219 L 283 219 L 282.5 247 L 282 218 Z " /><path fill="rgb(83,102,137)" stroke="rgb(83,102,137)" stroke-width="1" opacity="1" d="M 315.5 218 Q 320.75 216.75 322 219.5 L 321.5 245 L 321 219 L 315.5 219 L 315.5 218 Z " /><path fill="rgb(83,102,137)" stroke="rgb(83,102,137)" stroke-width="1" opacity="1" d="M 273.5 247 L 274 252.5 L 273 252.5 L 273.5 247 Z " /><path fill="rgb(83,102,137)" stroke="rgb(83,102,137)" stroke-width="1" opacity="1" d="M 279.5 247 L 280 252.5 L 279 252.5 L 279.5 247 Z " /><path fill="rgb(83,102,137)" stroke="rgb(83,102,137)" stroke-width="1" opacity="1" d="M 151.5 250 L 152 257.5 L 151 257.5 L 151.5 250 Z " /><path fill="rgb(83,102,137)" stroke="rgb(83,102,137)" stroke-width="1" opacity="1" d="M 190.5 250 L 191 254.5 L 190 254.5 L 190.5 250 Z " /><path fill="rgb(83,102,137)" stroke="rgb(83,102,137)" stroke-width="1" opacity="1" d="M 184.5 251 L 185 255.5 L 184 255.5 L 184.5 251 Z " /><path fill="rgb(83,102,137)" stroke="rgb(83,102,137)" stroke-width="1" opacity="1" d="M 281.5 253 L 282 256.5 L 281 256.5 L 281.5 253 Z " /><path fill="rgb(83,102,137)" stroke="rgb(83,102,137)" stroke-width="1" opacity="1" d="M 314.5 255 L 315 258.5 L 314 258.5 L 314.5 255 Z " /><path fill="rgb(83,102,137)" stroke="rgb(83,102,137)" stroke-width="1" opacity="1" d="M 182.5 256 L 183 258.5 L 182 258.5 L 182.5 256 Z " /><path fill="rgb(83,102,137)" stroke="rgb(83,102,137)" stroke-width="1" opacity="1" d="M 272.5 256 L 273 258.5 L 272 258.5 L 272.5 256 Z " /><path fill="rgb(83,102,137)" stroke="rgb(83,102,137)" stroke-width="1" opacity="1" d="M 278.5 256 L 279 258.5 L 278 258.5 L 278.5 256 Z " /><path fill="rgb(83,102,137)" stroke="rgb(83,102,137)" stroke-width="1" opacity="1" d="M 320.5 256 L 321 258.5 L 320 258.5 L 320.5 256 Z " /><path fill="rgb(83,102,137)" stroke="rgb(83,102,137)" stroke-width="1" opacity="1" d="M 149.5 258 L 150 262.5 L 149 262.5 L 149.5 258 Z " /><path fill="rgb(83,102,137)" stroke="rgb(83,102,137)" stroke-width="1" opacity="1" d="M 191.5 258 L 192 260.5 L 191 260.5 L 191.5 258 Z " /><path fill="rgb(83,102,137)" stroke="rgb(83,102,137)" stroke-width="1" opacity="1" d="M 143.5 259 L 144 262.5 L 143 262.5 L 143.5 259 Z " /><path fill="rgb(83,102,137)" stroke="rgb(83,102,137)" stroke-width="1" opacity="1" d="M 185.5 259 L 186 260.5 L 185 260.5 L 185.5 259 Z " /><path fill="rgb(83,102,137)" stroke="rgb(83,102,137)" stroke-width="1" opacity="1" d="M 152.5 262 L 153 264.5 L 152 264.5 L 152.5 262 Z " /><path fill="rgb(83,102,137)" stroke="rgb(83,102,137)" stroke-width="1" opacity="1" d="M 183.5 262 L 184 263.5 L 183 263.5 L 183.5 262 Z " /><path fill="rgb(83,102,137)" stroke="rgb(83,102,137)" stroke-width="1" opacity="1" d="M 192.5 262 L 193 263.5 L 192 263.5 L 192.5 262 Z " /><path fill="rgb(83,102,137)" stroke="rgb(83,102,137)" stroke-width="1" opacity="1" d="M 186.5 263 L 187 264.5 L 186 264.5 L 186.5 263 Z " /><path fill="rgb(83,102,137)" stroke="rgb(83,102,137)" stroke-width="1" opacity="1" d="M 184.5 265 L 185 266.5 L 184 266.5 L 184.5 265 Z " /><path fill="rgb(83,102,137)" stroke="rgb(83,102,137)" stroke-width="1" opacity="1" d="M 144.5 266 L 145 268.5 L 144 268.5 L 144.5 266 Z " /><path fill="rgb(83,102,137)" stroke="rgb(83,102,137)" stroke-width="1" opacity="1" d="M 150.5 266 L 151 267.5 L 150 267.5 L 150.5 266 Z " /><path fill="rgb(83,102,137)" stroke="rgb(83,102,137)" stroke-width="1" opacity="1" d="M 193.5 266 L 193.5 267 L 193.5 266 Z " /><path fill="rgb(83,102,137)" stroke="rgb(83,102,137)" stroke-width="1" opacity="1" d="M 187.5 267 L 187.5 268 L 187.5 267 Z " /><path fill="rgb(83,102,137)" stroke="rgb(83,102,137)" stroke-width="1" opacity="1" d="M 153.5 268 L 154 269.5 L 153 269.5 L 153.5 268 Z " /><path fill="rgb(83,102,137)" stroke="rgb(83,102,137)" stroke-width="1" opacity="1" d="M 194.5 268 L 194.5 269 L 194.5 268 Z " /><path fill="rgb(83,102,137)" stroke="rgb(83,102,137)" stroke-width="1" opacity="1" d="M 185.5 269 L 185.5 270 L 185.5 269 Z " /><path fill="rgb(83,102,137)" stroke="rgb(83,102,137)" stroke-width="1" opacity="1" d="M 188.5 269 L 189 270.5 L 188 270.5 L 188.5 269 Z " /><path fill="rgb(83,102,137)" stroke="rgb(83,102,137)" stroke-width="1" opacity="1" d="M 151.5 270 L 152 272.5 L 151 272.5 L 151.5 270 Z " /><path fill="rgb(83,102,137)" stroke="rgb(83,102,137)" stroke-width="1" opacity="1" d="M 195.5 270 L 195.5 271 L 195.5 270 Z " /><path fill="rgb(83,102,137)" stroke="rgb(83,102,137)" stroke-width="1" opacity="1" d="M 145.5 271 L 146 272.5 L 145 272.5 L 145.5 271 Z " /><path fill="rgb(83,102,137)" stroke="rgb(83,102,137)" stroke-width="1" opacity="1" d="M 186.5 271 L 186.5 272 L 186.5 271 Z " /><path fill="rgb(83,102,137)" stroke="rgb(83,102,137)" stroke-width="1" opacity="1" d="M 154.5 272 L 155 273.5 L 154 273.5 L 154.5 272 Z " /><path fill="rgb(83,102,137)" stroke="rgb(83,102,137)" stroke-width="1" opacity="1" d="M 189.5 272 L 189.5 273 L 189.5 272 Z " /><path fill="rgb(83,102,137)" stroke="rgb(83,102,137)" stroke-width="1" opacity="1" d="M 196.5 272 L 196.5 273 L 196.5 272 Z " /><path fill="rgb(83,102,137)" stroke="rgb(83,102,137)" stroke-width="1" opacity="1" d="M 187.5 273 L 187.5 274 L 187.5 273 Z " /><path fill="rgb(83,102,137)" stroke="rgb(83,102,137)" stroke-width="1" opacity="1" d="M 152.5 274 L 153 275.5 L 152 275.5 L 152.5 274 Z " /><path fill="rgb(83,102,137)" stroke="rgb(83,102,137)" stroke-width="1" opacity="1" d="M 190.5 274 Q 193 275 191.5 276 Q 189 275 190.5 274 Z " /><path fill="rgb(83,102,137)" stroke="rgb(83,102,137)" stroke-width="1" opacity="1" d="M 197.5 274 L 200 276.5 L 199.5 277 L 197 274.5 L 197.5 274 Z " /><path fill="rgb(83,102,137)" stroke="rgb(83,102,137)" stroke-width="1" opacity="1" d="M 146.5 275 L 147 276.5 L 146 276.5 L 146.5 275 Z " /><path fill="rgb(83,102,137)" stroke="rgb(83,102,137)" stroke-width="1" opacity="1" d="M 155.5 275 L 156 276.5 L 155 276.5 L 155.5 275 Z " /><path fill="rgb(83,102,137)" stroke="rgb(83,102,137)" stroke-width="1" opacity="1" d="M 188.5 275 L 188.5 276 L 188.5 275 Z " /><path fill="rgb(83,102,137)" stroke="rgb(83,102,137)" stroke-width="1" opacity="1" d="M 153.5 277 L 154 278.5 L 153 278.5 L 153.5 277 Z " /><path fill="rgb(83,102,137)" stroke="rgb(83,102,137)" stroke-width="1" opacity="1" d="M 189.5 277 Q 192 278 190.5 279 Q 188 278 189.5 277 Z " /><path fill="rgb(83,102,137)" stroke="rgb(83,102,137)" stroke-width="1" opacity="1" d="M 192.5 277 Q 195 278 193.5 279 Q 191 278 192.5 277 Z " /><path fill="rgb(83,102,137)" stroke="rgb(83,102,137)" stroke-width="1" opacity="1" d="M 147.5 278 L 148 279.5 L 147 279.5 L 147.5 278 Z " /><path fill="rgb(83,102,137)" stroke="rgb(83,102,137)" stroke-width="1" opacity="1" d="M 156.5 278 L 156.5 279 L 156.5 278 Z " /><path fill="rgb(83,102,137)" stroke="rgb(83,102,137)" stroke-width="1" opacity="1" d="M 154.5 280 L 154.5 281 L 154.5 280 Z " /><path fill="rgb(83,102,137)" stroke="rgb(83,102,137)" stroke-width="1" opacity="1" d="M 157.5 280 L 158 281.5 L 157 281.5 L 157.5 280 Z " /><path fill="rgb(83,102,137)" stroke="rgb(83,102,137)" stroke-width="1" opacity="1" d="M 191.5 280 L 194 282.5 L 193.5 283 L 191 280.5 L 191.5 280 Z " /><path fill="rgb(83,102,137)" stroke="rgb(83,102,137)" stroke-width="1" opacity="1" d="M 203.5 280 Q 206 281 204.5 282 Q 202 281 203.5 280 Z " /><path fill="rgb(83,102,137)" stroke="rgb(83,102,137)" stroke-width="1" opacity="1" d="M 148.5 281 L 148.5 282 L 148.5 281 Z " /><path fill="rgb(83,102,137)" stroke="rgb(83,102,137)" stroke-width="1" opacity="1" d="M 195.5 281 L 198 283.5 L 197.5 284 L 195 281.5 L 195.5 281 Z " /><path fill="rgb(83,102,137)" stroke="rgb(83,102,137)" stroke-width="1" opacity="1" d="M 155.5 282 L 155.5 283 L 155.5 282 Z " /><path fill="rgb(83,102,137)" stroke="rgb(83,102,137)" stroke-width="1" opacity="1" d="M 149.5 283 L 150 284.5 L 149 284.5 L 149.5 283 Z " /><path fill="rgb(83,102,137)" stroke="rgb(83,102,137)" stroke-width="1" opacity="1" d="M 158.5 283 L 158.5 284 L 158.5 283 Z " /><path fill="rgb(83,102,137)" stroke="rgb(83,102,137)" stroke-width="1" opacity="1" d="M 207.5 283 L 207.5 284 L 207.5 283 Z " /><path fill="rgb(83,102,137)" stroke="rgb(83,102,137)" stroke-width="1" opacity="1" d="M 209.5 284 L 209.5 285 L 209.5 284 Z " /><path fill="rgb(83,102,137)" stroke="rgb(83,102,137)" stroke-width="1" opacity="1" d="M 156.5 285 Q 159 286 157.5 287 Q 155 286 156.5 285 Z " /><path fill="rgb(83,102,137)" stroke="rgb(83,102,137)" stroke-width="1" opacity="1" d="M 159.5 285 Q 162 286 160.5 287 Q 158 286 159.5 285 Z " /><path fill="rgb(83,102,137)" stroke="rgb(83,102,137)" stroke-width="1" opacity="1" d="M 211.5 285 L 211.5 286 L 211.5 285 Z " /><path fill="rgb(83,102,137)" stroke="rgb(83,102,137)" stroke-width="1" opacity="1" d="M 150.5 286 L 150.5 287 L 150.5 286 Z " /><path fill="rgb(83,102,137)" stroke="rgb(83,102,137)" stroke-width="1" opacity="1" d="M 201.5 286 Q 204 287 202.5 288 Q 200 287 201.5 286 Z " /><path fill="rgb(83,102,137)" stroke="rgb(83,102,137)" stroke-width="1" opacity="1" d="M 214.5 286 L 214.5 287 L 214.5 286 Z " /><path fill="rgb(83,102,137)" stroke="rgb(83,102,137)" stroke-width="1" opacity="1" d="M 198.5 287 Q 201 288 199.5 289 Q 197 288 198.5 287 Z " /><path fill="rgb(83,102,137)" stroke="rgb(83,102,137)" stroke-width="1" opacity="1" d="M 217.5 287 L 219 287.5 L 217.5 288 L 217.5 287 Z " /><path fill="rgb(83,102,137)" stroke="rgb(83,102,137)" stroke-width="1" opacity="1" d="M 151.5 288 L 151.5 289 L 151.5 288 Z " /><path fill="rgb(83,102,137)" stroke="rgb(83,102,137)" stroke-width="1" opacity="1" d="M 158.5 288 L 158.5 289 L 158.5 288 Z " /><path fill="rgb(83,102,137)" stroke="rgb(83,102,137)" stroke-width="1" opacity="1" d="M 161.5 288 L 161.5 289 L 161.5 288 Z " /><path fill="rgb(83,102,137)" stroke="rgb(83,102,137)" stroke-width="1" opacity="1" d="M 204.5 288 L 204.5 289 L 204.5 288 Z " /><path fill="rgb(83,102,137)" stroke="rgb(83,102,137)" stroke-width="1" opacity="1" d="M 201.5 289 Q 204 290 202.5 291 Q 200 290 201.5 289 Z " /><path fill="rgb(83,102,137)" stroke="rgb(83,102,137)" stroke-width="1" opacity="1" d="M 206.5 289 L 206.5 290 L 206.5 289 Z " /><path fill="rgb(83,102,137)" stroke="rgb(83,102,137)" stroke-width="1" opacity="1" d="M 152.5 290 Q 155 291 153.5 292 Q 151 291 152.5 290 Z " /><path fill="rgb(83,102,137)" stroke="rgb(83,102,137)" stroke-width="1" opacity="1" d="M 159.5 290 Q 162 291 160.5 292 Q 158 291 159.5 290 Z " /><path fill="rgb(83,102,137)" stroke="rgb(83,102,137)" stroke-width="1" opacity="1" d="M 162.5 290 Q 165 291 163.5 292 Q 161 291 162.5 290 Z " /><path fill="rgb(83,102,137)" stroke="rgb(83,102,137)" stroke-width="1" opacity="1" d="M 208.5 290 L 208.5 291 L 208.5 290 Z " /><path fill="rgb(83,102,137)" stroke="rgb(83,102,137)" stroke-width="1" opacity="1" d="M 259.5 290 L 300 290.5 Q 298.75 293.25 297.5 291 L 259 291 L 259 314.5 L 259.5 316 L 258 315.5 L 258 291.5 L 259.5 290 Z " /><path fill="rgb(83,102,137)" stroke="rgb(83,102,137)" stroke-width="1" opacity="1" d="M 303.5 290 L 310 290.5 L 303.5 291 L 303.5 290 Z " /><path fill="rgb(83,102,137)" stroke="rgb(83,102,137)" stroke-width="1" opacity="1" d="M 204.5 291 L 204.5 292 L 204.5 291 Z " /><path fill="rgb(83,102,137)" stroke="rgb(83,102,137)" stroke-width="1" opacity="1" d="M 210.5 291 L 210.5 292 L 210.5 291 Z " /><path fill="rgb(83,102,137)" stroke="rgb(83,102,137)" stroke-width="1" opacity="1" d="M 206.5 292 L 206.5 293 L 206.5 292 Z " /><path fill="rgb(83,102,137)" stroke="rgb(83,102,137)" stroke-width="1" opacity="1" d="M 213.5 292 L 213.5 293 L 213.5 292 Z " /><path fill="rgb(83,102,137)" stroke="rgb(83,102,137)" stroke-width="1" opacity="1" d="M 308.5 292 L 308.5 293 L 308.5 292 Z " /><path fill="rgb(83,102,137)" stroke="rgb(83,102,137)" stroke-width="1" opacity="1" d="M 154.5 293 L 154.5 294 L 154.5 293 Z " /><path fill="rgb(83,102,137)" stroke="rgb(83,102,137)" stroke-width="1" opacity="1" d="M 161.5 293 L 164 295.5 L 163.5 296 L 161 293.5 L 161.5 293 Z " /><path fill="rgb(83,102,137)" stroke="rgb(83,102,137)" stroke-width="1" opacity="1" d="M 208.5 293 L 208.5 294 L 208.5 293 Z " /><path fill="rgb(83,102,137)" stroke="rgb(83,102,137)" stroke-width="1" opacity="1" d="M 216.5 293 L 219 293.5 L 216.5 294 L 216.5 293 Z " /><path fill="rgb(83,102,137)" stroke="rgb(83,102,137)" stroke-width="1" opacity="1" d="M 300.5 293 Q 302 294 299.5 295 Q 298 294 300.5 293 Z " /><path fill="rgb(83,102,137)" stroke="rgb(83,102,137)" stroke-width="1" opacity="1" d="M 165.5 294 L 174 302.5 L 173.5 303 L 165 294.5 L 165.5 294 Z " /><path fill="rgb(83,102,137)" stroke="rgb(83,102,137)" stroke-width="1" opacity="1" d="M 211.5 294 L 211.5 295 L 211.5 294 Z " /><path fill="rgb(83,102,137)" stroke="rgb(83,102,137)" stroke-width="1" opacity="1" d="M 296.5 294 L 297 294.5 L 291.5 300 L 291 299.5 L 296.5 294 Z " /><path fill="rgb(83,102,137)" stroke="rgb(83,102,137)" stroke-width="1" opacity="1" d="M 155.5 295 L 158 297.5 L 157.5 298 L 155 295.5 L 155.5 295 Z " /><path fill="rgb(83,102,137)" stroke="rgb(83,102,137)" stroke-width="1" opacity="1" d="M 214.5 295 L 216 295.5 L 214.5 296 L 214.5 295 Z " /><path fill="rgb(83,102,137)" stroke="rgb(83,102,137)" stroke-width="1" opacity="1" d="M 306.5 295 Q 308 296 305.5 297 Q 304 296 306.5 295 Z " /><path fill="rgb(83,102,137)" stroke="rgb(83,102,137)" stroke-width="1" opacity="1" d="M 218.5 296 L 220 296.5 L 218.5 297 L 218.5 296 Z " /><path fill="rgb(83,102,137)" stroke="rgb(83,102,137)" stroke-width="1" opacity="1" d="M 165.5 298 L 170 302.5 L 169.5 303 L 165 298.5 L 165.5 298 Z " /><path fill="rgb(83,102,137)" stroke="rgb(83,102,137)" stroke-width="1" opacity="1" d="M 158.5 299 L 168 308.5 L 167.5 309 L 158 299.5 L 158.5 299 Z " /><path fill="rgb(83,102,137)" stroke="rgb(83,102,137)" stroke-width="1" opacity="1" d="M 303.5 299 L 304 299.5 L 296.5 307 L 296 306.5 L 303.5 299 Z " /><path fill="rgb(83,102,137)" stroke="rgb(83,102,137)" stroke-width="1" opacity="1" d="M 288.5 301 L 289 301.5 L 286.5 304 L 286 303.5 L 288.5 301 Z " /><path fill="rgb(83,102,137)" stroke="rgb(83,102,137)" stroke-width="1" opacity="1" d="M 291.5 302 Q 293 303 290.5 304 Q 289 303 291.5 302 Z " /><path fill="rgb(83,102,137)" stroke="rgb(83,102,137)" stroke-width="1" opacity="1" d="M 172.5 304 L 175 306.5 L 174.5 307 L 172 304.5 L 172.5 304 Z " /><path fill="rgb(83,102,137)" stroke="rgb(83,102,137)" stroke-width="1" opacity="1" d="M 176.5 304 Q 179 305 177.5 306 Q 175 305 176.5 304 Z " /><path fill="rgb(83,102,137)" stroke="rgb(83,102,137)" stroke-width="1" opacity="1" d="M 284.5 304 Q 286 305 283.5 306 Q 282 305 284.5 304 Z " /><path fill="rgb(83,102,137)" stroke="rgb(83,102,137)" stroke-width="1" opacity="1" d="M 179.5 306 Q 182 307 180.5 308 Q 178 307 179.5 306 Z " /><path fill="rgb(83,102,137)" stroke="rgb(83,102,137)" stroke-width="1" opacity="1" d="M 281.5 306 Q 283 307 280.5 308 Q 279 307 281.5 306 Z " /><path fill="rgb(83,102,137)" stroke="rgb(83,102,137)" stroke-width="1" opacity="1" d="M 286.5 306 L 286.5 307 L 286.5 306 Z " /><path fill="rgb(83,102,137)" stroke="rgb(83,102,137)" stroke-width="1" opacity="1" d="M 176.5 307 Q 179 308 177.5 309 Q 175 308 176.5 307 Z " /><path fill="rgb(83,102,137)" stroke="rgb(83,102,137)" stroke-width="1" opacity="1" d="M 284.5 307 Q 286 308 283.5 309 Q 282 308 284.5 307 Z " /><path fill="rgb(83,102,137)" stroke="rgb(83,102,137)" stroke-width="1" opacity="1" d="M 182.5 308 L 182.5 309 L 182.5 308 Z " /><path fill="rgb(83,102,137)" stroke="rgb(83,102,137)" stroke-width="1" opacity="1" d="M 278.5 308 L 278.5 309 L 278.5 308 Z " /><path fill="rgb(83,102,137)" stroke="rgb(83,102,137)" stroke-width="1" opacity="1" d="M 293.5 308 L 294 308.5 L 291.5 311 L 291 310.5 L 293.5 308 Z " /><path fill="rgb(83,102,137)" stroke="rgb(83,102,137)" stroke-width="1" opacity="1" d="M 179.5 309 Q 182 310 180.5 311 Q 178 310 179.5 309 Z " /><path fill="rgb(83,102,137)" stroke="rgb(83,102,137)" stroke-width="1" opacity="1" d="M 184.5 309 L 184.5 310 L 184.5 309 Z " /><path fill="rgb(83,102,137)" stroke="rgb(83,102,137)" stroke-width="1" opacity="1" d="M 276.5 309 L 276.5 310 L 276.5 309 Z " /><path fill="rgb(83,102,137)" stroke="rgb(83,102,137)" stroke-width="1" opacity="1" d="M 281.5 309 L 281.5 310 L 281.5 309 Z " /><path fill="rgb(83,102,137)" stroke="rgb(83,102,137)" stroke-width="1" opacity="1" d="M 186.5 310 L 186.5 311 L 186.5 310 Z " /><path fill="rgb(83,102,137)" stroke="rgb(83,102,137)" stroke-width="1" opacity="1" d="M 273.5 310 L 275 310.5 L 273.5 311 L 273.5 310 Z " /><path fill="rgb(83,102,137)" stroke="rgb(83,102,137)" stroke-width="1" opacity="1" d="M 279.5 310 L 279.5 311 L 279.5 310 Z " /><path fill="rgb(83,102,137)" stroke="rgb(83,102,137)" stroke-width="1" opacity="1" d="M 171.5 311 Q 174 312 172.5 313 Q 170 312 171.5 311 Z " /><path fill="rgb(83,102,137)" stroke="rgb(83,102,137)" stroke-width="1" opacity="1" d="M 182.5 311 L 182.5 312 L 182.5 311 Z " /><path fill="rgb(83,102,137)" stroke="rgb(83,102,137)" stroke-width="1" opacity="1" d="M 188.5 311 L 188.5 312 L 188.5 311 Z " /><path fill="rgb(83,102,137)" stroke="rgb(83,102,137)" stroke-width="1" opacity="1" d="M 271.5 311 L 271.5 312 L 271.5 311 Z " /><path fill="rgb(83,102,137)" stroke="rgb(83,102,137)" stroke-width="1" opacity="1" d="M 277.5 311 L 277.5 312 L 277.5 311 Z " /><path fill="rgb(83,102,137)" stroke="rgb(83,102,137)" stroke-width="1" opacity="1" d="M 289.5 311 Q 291 312 288.5 313 Q 287 312 289.5 311 Z " /><path fill="rgb(83,102,137)" stroke="rgb(83,102,137)" stroke-width="1" opacity="1" d="M 184.5 312 L 184.5 313 L 184.5 312 Z " /><path fill="rgb(83,102,137)" stroke="rgb(83,102,137)" stroke-width="1" opacity="1" d="M 191.5 312 L 191.5 313 L 191.5 312 Z " /><path fill="rgb(83,102,137)" stroke="rgb(83,102,137)" stroke-width="1" opacity="1" d="M 268.5 312 L 270 312.5 L 268.5 313 L 268.5 312 Z " /><path fill="rgb(83,102,137)" stroke="rgb(83,102,137)" stroke-width="1" opacity="1" d="M 275.5 312 L 275.5 313 L 275.5 312 Z " /><path fill="rgb(83,102,137)" stroke="rgb(83,102,137)" stroke-width="1" opacity="1" d="M 174.5 313 L 174.5 314 L 174.5 313 Z " /><path fill="rgb(83,102,137)" stroke="rgb(83,102,137)" stroke-width="1" opacity="1" d="M 186.5 313 L 186.5 314 L 186.5 313 Z " /><path fill="rgb(83,102,137)" stroke="rgb(83,102,137)" stroke-width="1" opacity="1" d="M 193.5 313 L 195 313.5 L 193.5 314 L 193.5 313 Z " /><path fill="rgb(83,102,137)" stroke="rgb(83,102,137)" stroke-width="1" opacity="1" d="M 266.5 313 L 266.5 314 L 266.5 313 Z " /><path fill="rgb(83,102,137)" stroke="rgb(83,102,137)" stroke-width="1" opacity="1" d="M 273.5 313 L 273.5 314 L 273.5 313 Z " /><path fill="rgb(83,102,137)" stroke="rgb(83,102,137)" stroke-width="1" opacity="1" d="M 286.5 313 L 286.5 314 L 286.5 313 Z " /><path fill="rgb(83,102,137)" stroke="rgb(83,102,137)" stroke-width="1" opacity="1" d="M 189.5 314 L 189.5 315 L 189.5 314 Z " /><path fill="rgb(83,102,137)" stroke="rgb(83,102,137)" stroke-width="1" opacity="1" d="M 196.5 314 L 198 314.5 L 196.5 315 L 196.5 314 Z " /><path fill="rgb(83,102,137)" stroke="rgb(83,102,137)" stroke-width="1" opacity="1" d="M 262.5 314 L 264 314.5 L 262.5 315 L 262.5 314 Z " /><path fill="rgb(83,102,137)" stroke="rgb(83,102,137)" stroke-width="1" opacity="1" d="M 270.5 314 L 272 314.5 L 270.5 315 L 270.5 314 Z " /><path fill="rgb(83,102,137)" stroke="rgb(83,102,137)" stroke-width="1" opacity="1" d="M 177.5 315 L 177.5 316 L 177.5 315 Z " /><path fill="rgb(83,102,137)" stroke="rgb(83,102,137)" stroke-width="1" opacity="1" d="M 191.5 315 L 193 315.5 L 191.5 316 L 191.5 315 Z " /><path fill="rgb(83,102,137)" stroke="rgb(83,102,137)" stroke-width="1" opacity="1" d="M 200.5 315 L 202 315.5 L 200.5 316 L 200.5 315 Z " /><path fill="rgb(83,102,137)" stroke="rgb(83,102,137)" stroke-width="1" opacity="1" d="M 268.5 315 L 268.5 316 L 268.5 315 Z " /><path fill="rgb(83,102,137)" stroke="rgb(83,102,137)" stroke-width="1" opacity="1" d="M 283.5 315 L 283.5 316 L 283.5 315 Z " /><path fill="rgb(83,102,137)" stroke="rgb(83,102,137)" stroke-width="1" opacity="1" d="M 179.5 316 L 179.5 317 L 179.5 316 Z " /><path fill="rgb(83,102,137)" stroke="rgb(83,102,137)" stroke-width="1" opacity="1" d="M 194.5 316 L 196 316.5 L 194.5 317 L 194.5 316 Z " /><path fill="rgb(83,102,137)" stroke="rgb(83,102,137)" stroke-width="1" opacity="1" d="M 204.5 316 L 207 316.5 L 204.5 317 L 204.5 316 Z " /><path fill="rgb(83,102,137)" stroke="rgb(83,102,137)" stroke-width="1" opacity="1" d="M 264.5 316 L 266 316.5 L 264.5 317 L 264.5 316 Z " /><path fill="rgb(83,102,137)" stroke="rgb(83,102,137)" stroke-width="1" opacity="1" d="M 281.5 316 L 281.5 317 L 281.5 316 Z " /><path fill="rgb(83,102,137)" stroke="rgb(83,102,137)" stroke-width="1" opacity="1" d="M 181.5 317 L 181.5 318 L 181.5 317 Z " /><path fill="rgb(83,102,137)" stroke="rgb(83,102,137)" stroke-width="1" opacity="1" d="M 198.5 317 L 198.5 318 L 198.5 317 Z " /><path fill="rgb(83,102,137)" stroke="rgb(83,102,137)" stroke-width="1" opacity="1" d="M 210.5 317 L 213 317.5 L 210.5 318 L 210.5 317 Z " /><path fill="rgb(83,102,137)" stroke="rgb(83,102,137)" stroke-width="1" opacity="1" d="M 261.5 317 L 263 317.5 L 261.5 318 L 261.5 317 Z " /><path fill="rgb(83,102,137)" stroke="rgb(83,102,137)" stroke-width="1" opacity="1" d="M 279.5 317 L 279.5 318 L 279.5 317 Z " /><path fill="rgb(83,102,137)" stroke="rgb(83,102,137)" stroke-width="1" opacity="1" d="M 183.5 318 L 183.5 319 L 183.5 318 Z " /><path fill="rgb(83,102,137)" stroke="rgb(83,102,137)" stroke-width="1" opacity="1" d="M 201.5 318 L 204 318.5 L 201.5 319 L 201.5 318 Z " /><path fill="rgb(83,102,137)" stroke="rgb(83,102,137)" stroke-width="1" opacity="1" d="M 218.5 318 L 220 318.5 L 218.5 319 L 218.5 318 Z " /><path fill="rgb(83,102,137)" stroke="rgb(83,102,137)" stroke-width="1" opacity="1" d="M 258.5 318 L 259 323.5 L 258 323.5 L 258.5 318 Z " /><path fill="rgb(83,102,137)" stroke="rgb(83,102,137)" stroke-width="1" opacity="1" d="M 277.5 318 L 277.5 319 L 277.5 318 Z " /><path fill="rgb(83,102,137)" stroke="rgb(83,102,137)" stroke-width="1" opacity="1" d="M 185.5 319 L 185.5 320 L 185.5 319 Z " /><path fill="rgb(83,102,137)" stroke="rgb(83,102,137)" stroke-width="1" opacity="1" d="M 206.5 319 L 209 319.5 L 206.5 320 L 206.5 319 Z " /><path fill="rgb(83,102,137)" stroke="rgb(83,102,137)" stroke-width="1" opacity="1" d="M 274.5 319 L 274.5 320 L 274.5 319 Z " /><path fill="rgb(83,102,137)" stroke="rgb(83,102,137)" stroke-width="1" opacity="1" d="M 188.5 320 L 188.5 321 L 188.5 320 Z " /><path fill="rgb(83,102,137)" stroke="rgb(83,102,137)" stroke-width="1" opacity="1" d="M 213.5 320 L 218 320.5 L 213.5 321 L 213.5 320 Z " /><path fill="rgb(83,102,137)" stroke="rgb(83,102,137)" stroke-width="1" opacity="1" d="M 271.5 320 L 273 320.5 L 271.5 321 L 271.5 320 Z " /><path fill="rgb(83,102,137)" stroke="rgb(83,102,137)" stroke-width="1" opacity="1" d="M 190.5 321 L 192 321.5 L 190.5 322 L 190.5 321 Z " /><path fill="rgb(83,102,137)" stroke="rgb(83,102,137)" stroke-width="1" opacity="1" d="M 269.5 321 L 269.5 322 L 269.5 321 Z " /><path fill="rgb(83,102,137)" stroke="rgb(83,102,137)" stroke-width="1" opacity="1" d="M 193.5 322 L 195 322.5 L 193.5 323 L 193.5 322 Z " /><path fill="rgb(83,102,137)" stroke="rgb(83,102,137)" stroke-width="1" opacity="1" d="M 265.5 322 L 267 322.5 L 265.5 323 L 265.5 322 Z " /><path fill="rgb(83,102,137)" stroke="rgb(83,102,137)" stroke-width="1" opacity="1" d="M 197.5 323 L 199 323.5 L 197.5 324 L 197.5 323 Z " /><path fill="rgb(83,102,137)" stroke="rgb(83,102,137)" stroke-width="1" opacity="1" d="M 261.5 323 L 263 323.5 L 261.5 324 L 261.5 323 Z " /><path fill="rgb(83,102,137)" stroke="rgb(83,102,137)" stroke-width="1" opacity="1" d="M 201.5 324 L 203 324.5 L 201.5 325 L 201.5 324 Z " /><path fill="rgb(83,102,137)" stroke="rgb(83,102,137)" stroke-width="1" opacity="1" d="M 206.5 325 L 209 325.5 L 206.5 326 L 206.5 325 Z " /><path fill="rgb(83,102,137)" stroke="rgb(83,102,137)" stroke-width="1" opacity="1" d="M 213.5 326 L 217 326.5 L 213.5 327 L 213.5 326 Z " /><path fill="rgb(30,55,101)" stroke="rgb(30,55,101)" stroke-width="1" opacity="1" d="M 143 121 L 190 121 L 190 254.5 L 191 255.5 L 191 260.5 L 193 266.5 L 197 274.5 L 204.5 282 L 211.5 286 L 220 288 L 219.5 294 L 218.5 293 L 211.5 292 L 203.5 288 L 194 279.5 L 187 266.5 L 187 263.5 L 185 258.5 L 185 251.5 L 184 250.5 L 184 127 L 148.5 127 L 148 127.5 L 148 249.5 L 149 250.5 L 149 262.5 L 150 263.5 L 150 267.5 L 151 268.5 L 151 272.5 L 153 278.5 L 161 293.5 L 169.5 303 L 180.5 311 L 191.5 316 L 197.5 317 L 201.5 319 L 205.5 319 L 206.5 320 L 212.5 320 L 213.5 321 L 220 321 L 220 327 L 217.5 327 L 216.5 326 L 203.5 325 L 202.5 324 L 199.5 324 L 198.5 323 L 195.5 323 L 186.5 320 L 170.5 311 L 158 298.5 L 152 289.5 L 148 280.5 L 146 274.5 L 146 271.5 L 145 270.5 L 145 266.5 L 144 265.5 L 144 259.5 L 143 258.5 L 143 121 Z " /><path fill="rgb(30,55,101)" stroke="rgb(30,55,101)" stroke-width="1" opacity="1" d="M 274 121 L 321 121 L 321 187 L 315.5 187 L 315 186.5 L 315 127 L 280 127 L 280 186.5 L 279.5 187 L 274 187 L 274 121 Z " /><path fill="rgb(30,55,101)" stroke="rgb(30,55,101)" stroke-width="1" opacity="1" d="M 151 130 L 180.5 130 L 181 130.5 L 181 250.5 L 182 251.5 L 182 258.5 L 183 259.5 L 183 263.5 L 185 269.5 Q 189.75 281.75 199.5 289 L 208.5 294 L 220 297 L 220 317.5 L 219.5 318 L 213.5 318 L 212.5 317 L 207.5 317 L 206.5 316 L 198.5 315 L 181.5 308 Q 171.1 301.9 164 292.5 L 158 282.5 L 158 280.5 L 154 271.5 L 153 262.5 L 152 261.5 L 152 250.5 L 151 249.5 L 151 130 Z " /><path fill="rgb(30,55,101)" stroke="rgb(30,55,101)" stroke-width="1" opacity="1" d="M 283 130 L 312 130 L 312 187 L 283 187 L 283 130 Z " /><path fill="rgb(30,55,101)" stroke="rgb(30,55,101)" stroke-width="1" opacity="1" d="M 274 219 L 279.5 219 L 280 219.5 L 280 246.5 L 279 247.5 L 279 255.5 Q 277.25 256.42 278 259 L 273 259 L 273 253.5 L 274 252.5 L 274 219 Z " /><path fill="rgb(30,55,101)" stroke="rgb(30,55,101)" stroke-width="1" opacity="1" d="M 283 219 L 312 219 L 312 259 L 281.5 259 L 281 257.5 L 282 256.5 L 282 247.5 L 283 246.5 L 283 219 Z " /><path fill="rgb(30,55,101)" stroke="rgb(30,55,101)" stroke-width="1" opacity="1" d="M 315 219 L 320.5 219 L 321 219.5 L 321 255.5 Q 319.25 256.42 320 259 L 315.5 259 L 315 258.5 L 315 219 Z " /><path fill="rgb(30,55,101)" stroke="rgb(30,55,101)" stroke-width="1" opacity="1" d="M 259 291 L 297.5 291 L 298 292.5 Q 290.25 301.75 279.5 308 L 265.5 314 L 259 315 L 259 291 Z " /><path fill="rgb(30,55,101)" stroke="rgb(30,55,101)" stroke-width="1" opacity="1" d="M 302.5 291 L 309 291.5 Q 303.3 301.3 294.5 308 Q 286.64 314.64 276.5 319 L 271.5 320 L 268.5 322 L 265.5 322 L 264.5 323 L 261.5 323 L 259 324 L 259 318 L 262.5 318 L 271.5 315 L 283.5 309 Q 293.63 302.63 301 293.5 L 302.5 291 Z " /><path fill="rgb(237,225,226)" stroke="rgb(237,225,226)" stroke-width="1" opacity="0.9254901960784314" d="M 140 118 L 193 118 L 193 253.5 L 194 254.5 L 194 258.5 L 195 259.5 L 196 265.5 Q 198.64 272.36 203.5 277 L 214.5 284 L 217.5 284 L 220 285 L 220 187 L 271 187 L 271 118 L 324 118 L 324 186.5 L 324.5 187 L 339 187 L 339 219 L 324 219 L 324 255.5 Q 322.25 256.42 323 259 L 337 259 L 337 291 L 313.5 291 L 311 293.5 L 309 297.5 L 294.5 312 L 277.5 322 L 272.5 323 L 269.5 325 L 266.5 325 L 265.5 326 L 259 327 L 259 346 L 220 346 L 220 330.5 Q 220.25 329.75 217.5 330 L 216.5 329 L 208.5 329 Q 207.25 326.75 202.5 328 L 201.5 327 L 194.5 326 L 185.5 322 L 183.5 322 Q 167.59 314.91 157 302.5 L 150 292.5 L 145 281.5 L 143 275.5 L 143 272.5 L 142 271.5 Q 143 267.5 141 266.5 L 141 259.5 L 140 258.5 L 140 118 Z M 142 121 L 142 250 L 143 251 L 143 263 L 144 264 L 144 269 L 146 274 L 146 277 L 149 283 L 149 285 L 158 300 L 173 313 L 186 320 L 188 320 L 194 323 L 201 324 L 202 325 L 213 326 L 214 327 L 220 327 L 220 321 L 218 320 L 210 320 L 204 318 L 200 318 L 188 314 L 172 304 L 164 297 L 156 285 L 156 283 L 152 274 L 151 267 L 150 266 L 150 259 L 149 258 L 149 128 L 150 127 L 184 127 L 184 256 L 185 257 L 185 261 L 186 262 L 186 265 L 188 271 L 195 282 L 203 288 L 217 294 L 220 294 L 220 289 L 219 287 L 213 286 L 203 280 L 197 274 L 193 266 L 192 259 L 191 258 L 191 251 L 190 250 L 190 121 L 142 121 Z M 274 121 L 274 188 L 280 188 L 280 188 L 280 127 L 315 127 L 315 188 L 321 188 L 322 187 L 322 121 L 274 121 Z M 151 129 L 151 258 L 152 259 L 152 265 L 153 266 L 153 270 L 154 271 L 155 277 L 159 286 L 165 295 Q 174 306 189 312 L 191 312 L 197 315 L 204 316 L 205 317 L 218 318 L 219 319 L 220 319 L 220 296 L 210 294 L 198 287 Q 190 279 185 269 L 185 266 L 183 262 L 183 257 L 182 256 L 182 130 L 182 129 L 151 129 Z M 282 129 L 282 187 L 284 188 L 312 188 L 313 187 L 313 129 L 282 129 Z M 222 189 L 222 345 L 257 345 L 257 289 L 335 289 L 335 261 L 257 261 L 257 217 L 337 217 L 337 190 L 337 189 L 222 189 Z M 274 218 L 274 247 L 273 248 L 273 256 L 272 257 L 272 259 L 279 259 L 279 254 L 280 253 L 280 219 L 280 218 L 274 218 Z M 282 218 L 282 253 L 281 254 Q 280 259 282 259 L 312 259 Q 311 256 313 255 L 313 218 L 282 218 Z M 315 218 L 315 255 L 314 256 L 314 259 L 321 259 L 321 246 L 322 245 L 322 220 L 321 218 L 315 218 Z M 259 219 L 259 259 L 260 259 L 269 259 L 270 257 L 270 253 L 271 252 L 271 219 L 259 219 Z M 260 290 L 258 292 L 258 316 L 275 311 L 281 308 L 292 300 L 300 291 L 260 290 Z M 304 290 L 299 296 L 293 302 L 283 309 L 273 314 L 261 318 L 258 318 L 258 324 L 267 323 L 276 319 L 278 319 L 289 313 L 297 307 Q 305 300 310 291 L 304 290 Z " /><path fill="rgb(237,225,226)" stroke="rgb(237,225,226)" stroke-width="1" opacity="0.9254901960784314" d="M 225 192 L 333.5 192 L 334 192.5 L 334 214 L 254 214 L 254 264 L 331.5 264 L 332 264.5 L 332 285 L 254 285 L 254 341 L 225 341 L 225 192 Z M 227 194 L 227 340 L 252 340 L 252 284 L 330 284 L 330 267 L 330 266 L 252 266 L 252 212 L 333 212 L 333 195 L 333 194 L 227 194 Z " /><path fill="rgb(220,70,51)" stroke="rgb(220,70,51)" stroke-width="1" opacity="1" d="M 222 189 L 336.5 189 L 337 189.5 L 337 217 L 257 217 L 257 261 L 335 261 L 335 289 L 257 289 L 257 345 L 222 345 L 222 189 Z M 225 192 L 225 341 L 254 341 L 254 285 L 332 285 L 332 265 L 332 264 L 254 264 L 254 214 L 334 214 L 334 193 L 334 192 L 225 192 Z " /><path fill="rgb(220,70,51)" stroke="rgb(220,70,51)" stroke-width="1" opacity="1" d="M 227 194 L 332.5 194 L 333 194.5 L 333 212 L 252 212 L 252 266 L 329.5 266 L 330 266.5 L 330 284 L 252 284 L 252 340 L 227 340 L 227 194 Z " /></svg>