<?xml version="1.0" standalone="no"?>
<!DOCTYPE svg PUBLIC "-//W3C//DTD SVG 20010904//EN"
 "http://www.w3.org/TR/2001/REC-SVG-20010904/DTD/svg10.dtd">
<svg version="1.0" xmlns="http://www.w3.org/2000/svg"
 width="1898.000000pt" height="702.000000pt" viewBox="0 0 1898.000000 702.000000"
 preserveAspectRatio="xMidYMid meet">

<g transform="translate(0.000000,702.000000) scale(0.100000,-0.100000)"
fill="#000000" stroke="none">
<path d="M10057 5133 c-4 -3 -7 -17 -7 -29 0 -18 -8 -25 -32 -32 -34 -8 -36
-15 -39 -92 0 -9 -10 -20 -22 -26 -12 -5 -20 -16 -18 -24 14 -58 14 -56 -4
-32 -9 12 -20 20 -25 17 -4 -3 -10 4 -13 14 -7 30 -90 18 -86 -12 1 -7 -1 -20
-6 -30 -4 -10 -2 -23 5 -32 10 -12 9 -15 -4 -15 -9 0 -19 -7 -22 -15 -4 -8
-12 -15 -19 -15 -19 0 -26 -27 -12 -42 7 -7 16 -21 20 -32 6 -14 13 -17 33
-12 18 5 24 3 19 -5 -5 -6 -19 -9 -37 -5 -20 4 -30 1 -34 -9 -4 -8 -12 -15
-19 -15 -24 0 -27 -20 -10 -56 11 -23 23 -34 38 -34 17 0 19 -2 8 -9 -17 -11
-7 -41 13 -41 7 0 17 -7 20 -16 4 -12 14 -14 36 -9 31 7 39 -2 19 -22 -16 -16
-1 -35 24 -31 12 1 28 -1 34 -5 14 -9 53 9 53 23 0 6 7 10 15 10 9 0 21 11 27
25 l11 25 24 -22 c28 -27 83 -119 83 -140 0 -48 -123 -128 -196 -128 -32 0
-47 -5 -57 -21 -15 -21 -12 -55 5 -65 13 -8 604 -7 618 1 14 9 13 58 -2 73 -7
7 -28 12 -48 12 -20 0 -40 4 -46 10 -5 5 -34 22 -64 37 -46 24 -57 34 -68 68
-19 58 -7 121 30 158 27 27 31 29 40 14 31 -56 82 -81 141 -70 24 5 28 9 23
29 -5 19 0 26 24 39 16 9 30 20 30 25 0 6 11 10 25 10 14 0 25 5 25 10 0 6 9
10 19 10 33 0 34 31 2 62 -23 22 -35 27 -55 22 -20 -5 -26 -2 -26 11 0 24 25
45 48 39 15 -4 24 2 36 27 22 44 20 58 -8 69 -17 6 -26 18 -28 37 -2 22 -9 29
-30 31 -31 4 -34 12 -15 42 10 17 9 22 -3 30 -8 5 -20 8 -26 6 -6 -2 -17 0
-25 4 -8 5 -19 4 -26 -2 -7 -5 -19 -8 -28 -5 -8 4 -17 2 -20 -3 -4 -6 -11 -10
-17 -10 -7 0 -7 5 1 14 26 31 -18 62 -48 34 -11 -11 -12 -5 -6 30 4 25 3 42
-3 42 -5 0 -12 9 -15 19 -4 16 -13 19 -59 17 -37 -1 -60 -7 -72 -18 -10 -10
-22 -18 -28 -18 -6 0 -7 -12 -3 -30 4 -19 3 -30 -4 -30 -6 0 -11 8 -11 18 0
33 -30 82 -50 82 -10 0 -22 5 -25 10 -7 12 -19 13 -28 3z m28 -23 c3 -5 15
-10 26 -10 12 0 19 -7 19 -19 0 -11 5 -21 12 -23 19 -7 1 -38 -22 -38 -13 0
-24 10 -30 26 -7 18 -15 24 -26 20 -10 -4 -13 -2 -7 7 4 6 6 20 5 30 -3 18 13
24 23 7z m165 -25 c0 -14 4 -24 9 -22 11 3 13 -12 5 -37 -3 -10 -1 -22 5 -25
7 -5 6 -14 -5 -29 -21 -30 -34 -28 -35 6 -1 20 -2 22 -6 7 -7 -29 -22 -42 -22
-19 0 10 -2 36 -5 57 -3 28 1 43 17 62 28 31 37 31 37 0z m77 8 c4 -10 10 -21
15 -24 10 -6 -16 -61 -36 -78 -11 -9 -15 -6 -20 14 -4 14 -4 30 -1 35 3 6 2
18 -4 27 -7 13 -5 21 7 30 23 17 32 16 39 -4z m-297 -48 c9 -11 16 -13 24 -5
16 16 24 12 28 -12 2 -13 9 -22 16 -20 16 3 15 -10 -3 -44 -8 -16 -15 -24 -15
-18 0 5 -7 19 -16 30 -15 18 -15 18 -10 0 6 -18 -9 -46 -25 -46 -5 0 -6 6 -3
14 3 8 -3 17 -14 20 -17 6 -20 14 -17 49 2 23 4 43 4 45 3 7 20 0 31 -13z
m143 -51 c11 -4 17 -17 17 -34 0 -16 6 -30 12 -32 9 -3 8 -9 -4 -21 -22 -22
-27 -21 -38 6 l-9 22 0 -23 c-1 -13 -5 -21 -10 -17 -15 9 -41 65 -30 65 5 0 9
8 9 18 0 23 10 34 24 27 6 -3 19 -8 29 -11z m230 9 c4 -3 2 -12 -4 -19 -6 -8
-9 -21 -5 -29 3 -9 -3 -20 -14 -27 -11 -7 -20 -21 -20 -30 0 -24 -12 -23 -28
3 -11 17 -11 24 0 37 9 13 7 12 -9 -2 -20 -17 -23 -17 -29 -3 -3 9 1 24 10 32
9 9 16 21 16 26 0 5 11 7 24 3 13 -3 27 -1 30 5 8 12 20 14 29 4z m147 -51 c3
-2 -1 -7 -7 -9 -7 -3 -13 -9 -13 -15 0 -5 -10 -18 -22 -28 -17 -13 -27 -15
-36 -8 -10 9 -10 14 0 26 11 13 10 15 -5 9 -40 -15 -67 -19 -67 -10 0 16 38
46 49 39 5 -4 13 -2 16 4 6 10 74 4 85 -8z m-545 -2 c3 -6 -1 -7 -9 -4 -18 7
-21 14 -7 14 6 0 13 -4 16 -10z m29 -66 c15 -50 22 -59 54 -62 17 -2 33 -10
36 -18 7 -18 -11 -18 -48 1 -15 8 -33 15 -40 15 -6 0 -20 11 -30 25 -10 14
-24 25 -31 25 -13 0 -27 58 -18 73 9 16 68 -29 77 -59z m246 51 c0 -27 -3 -30
-24 -27 -29 5 -31 9 -16 27 16 19 40 19 40 0z m-387 -27 c3 -12 11 -16 21 -12
12 4 16 0 16 -15 0 -16 6 -21 25 -21 14 0 25 -3 25 -7 0 -5 -21 -8 -46 -8 -33
0 -49 5 -60 19 -8 11 -14 16 -14 10 0 -5 11 -22 25 -38 19 -22 22 -32 14 -40
-8 -8 -13 -7 -16 2 -3 6 -13 12 -23 12 -23 0 -35 16 -18 23 9 3 5 11 -10 22
-17 12 -21 20 -13 28 6 6 11 18 11 27 0 24 57 23 63 -2z m206 8 c10 -12 7 -18
-18 -31 l-31 -16 0 31 c0 23 5 30 19 30 10 0 24 -6 30 -14z m329 -17 c24 3 29
-11 10 -27 -15 -11 -78 -26 -78 -18 0 19 25 54 34 48 6 -3 21 -5 34 -3z m-89
-53 c-5 -6 -9 -18 -9 -28 0 -10 -7 -21 -15 -24 -8 -4 -12 -10 -9 -16 7 -10
-24 -48 -39 -48 -9 0 -7 13 8 55 4 12 -1 9 -13 -8 -13 -19 -22 -25 -27 -18 -4
7 -2 18 5 25 6 8 8 26 4 40 -5 20 -2 26 9 26 9 0 19 9 22 20 4 11 10 18 15 15
5 -3 12 0 16 6 5 8 13 4 25 -12 11 -15 14 -28 8 -33z m224 40 c24 9 29 -12 7
-31 -15 -14 -17 -21 -9 -32 9 -10 5 -14 -20 -19 -20 -4 -30 -11 -27 -20 5 -13
-14 -24 -45 -24 -27 0 -24 27 6 46 14 9 25 21 25 26 0 6 -6 5 -15 -2 -12 -10
-15 -10 -15 3 0 8 -3 22 -6 30 -4 11 0 14 13 11 11 -3 25 2 33 10 9 12 16 13
25 6 7 -6 19 -8 28 -4z m-373 -20 c6 -8 18 -12 26 -9 15 6 19 -32 8 -73 -7
-27 -35 -22 -72 13 -19 18 -23 26 -14 35 7 7 12 20 12 30 0 22 23 24 40 4z
m270 -27 c0 -6 -5 -19 -10 -30 -9 -15 -15 -17 -30 -9 -11 6 -20 20 -20 30 0
16 7 20 30 20 17 0 30 -5 30 -11z m134 -14 c3 -8 12 -12 20 -9 21 8 27 -10 13
-40 -8 -18 -20 -26 -39 -26 -14 0 -28 -4 -30 -9 -3 -10 -27 -14 -70 -12 -31 1
-39 21 -9 21 29 0 51 11 51 25 0 7 12 16 26 19 20 5 25 12 21 26 -6 23 8 27
17 5z m-629 -26 c-13 -25 -19 -28 -31 -18 -8 6 -14 20 -14 30 0 14 7 19 30 19
l31 0 -16 -31z m-135 7 c6 -8 18 -12 26 -9 13 5 14 -1 9 -31 -5 -24 -3 -36 4
-36 19 0 12 -17 -9 -23 -15 -4 -20 0 -20 15 0 16 -5 19 -25 16 -17 -4 -25 -1
-25 9 0 7 -7 16 -15 19 -8 4 -15 12 -15 20 0 8 7 14 15 14 8 0 15 5 15 10 0
15 26 12 40 -4z m227 -12 c3 -8 11 -13 19 -10 10 4 12 -5 8 -35 -4 -29 -1 -41
11 -45 19 -8 19 -38 0 -54 -12 -10 -16 -10 -19 1 -2 8 -9 28 -15 44 -11 29
-11 29 -6 3 6 -31 -9 -38 -23 -10 -8 15 -8 30 -4 100 2 25 20 30 29 6z m290
-14 c-4 -16 0 -20 18 -20 12 0 36 -3 52 -6 28 -5 29 -8 19 -30 -6 -13 -18 -24
-28 -24 -9 0 -18 -4 -20 -9 -4 -12 -88 -25 -88 -13 0 5 14 15 30 22 39 16 31
26 -9 12 -17 -6 -31 -8 -31 -4 0 13 15 28 33 35 10 4 15 12 12 17 -7 12 0 40
11 40 3 0 4 -9 1 -20z m-162 -22 c7 1 16 -7 20 -18 3 -11 11 -20 16 -20 5 0 9
-9 9 -20 0 -21 -15 -27 -25 -10 -3 5 -16 15 -28 21 -18 10 -17 6 7 -20 31 -33
28 -54 -4 -33 -11 7 -29 12 -41 12 -16 0 -20 5 -16 19 3 13 -1 21 -14 24 -14
4 -16 10 -10 33 4 16 12 29 18 29 6 0 15 4 19 8 5 4 14 0 22 -10 7 -10 19 -17
27 -15z m-253 2 c9 -13 24 -20 45 -20 21 0 33 -5 33 -13 0 -19 -110 -10 -130
10 -13 13 -13 16 4 29 26 19 33 18 48 -6z m348 -49 c0 -6 -4 -13 -10 -16 -5
-3 -10 1 -10 9 0 9 5 16 10 16 6 0 10 -4 10 -9z m244 -4 c17 -12 17 -14 -2
-37 -25 -31 -52 -21 -52 20 0 33 22 40 54 17z m-611 -16 c3 -11 -2 -30 -11
-42 -15 -21 -16 -21 -29 -4 -25 35 -16 56 28 64 4 0 9 -8 12 -18z m77 -1 c4
-7 12 -10 18 -6 6 3 13 -2 17 -13 3 -11 12 -22 20 -25 14 -5 22 -36 9 -36 -4
0 -23 10 -43 22 l-36 21 28 -29 c32 -36 34 -44 7 -44 -11 0 -20 7 -20 15 0 8
-8 15 -19 15 -16 0 -31 23 -35 55 -1 6 -5 15 -8 21 -4 6 -5 14 -2 17 10 10 56
1 64 -13z m-152 -3 c24 -16 13 -33 -20 -31 -18 1 -23 -1 -10 -3 12 -2 22 -11
22 -20 0 -9 -6 -13 -15 -9 -8 3 -26 1 -40 -4 -21 -8 -25 -7 -25 10 0 11 -7 20
-15 20 -8 0 -15 7 -15 15 0 8 9 15 20 15 11 0 20 4 20 8 0 11 60 9 78 -1z
m423 -67 c-17 -66 -9 -87 19 -50 11 14 20 20 20 13 0 -8 7 -10 17 -6 10 4 1
-10 -19 -30 -41 -40 -54 -84 -45 -149 7 -48 37 -83 97 -111 42 -20 43 -21 18
-25 -15 -2 -35 4 -45 13 -10 9 -32 27 -49 40 -26 20 -34 36 -42 82 -8 51 -10
53 -11 20 -2 -56 22 -104 66 -130 l38 -22 -44 -3 c-32 -2 -47 1 -53 12 -11 20
-47 21 -54 1 -4 -8 -13 -15 -21 -15 -15 0 -15 3 2 70 4 17 0 14 -15 -12 -15
-28 -27 -38 -45 -38 -13 0 -27 -4 -30 -10 -3 -5 -18 -10 -33 -10 -24 1 -22 3
20 25 54 28 88 68 88 102 0 29 -51 121 -84 152 -24 23 -25 23 -5 44 10 11 19
27 19 34 0 33 18 -1 23 -43 3 -32 13 -54 33 -75 37 -38 44 -37 44 10 0 51 -18
99 -41 112 -25 13 -24 25 1 32 15 4 21 -2 28 -26 5 -18 19 -47 30 -66 l21 -35
11 29 c6 16 10 45 9 65 -3 42 3 55 28 57 19 1 19 -1 4 -57z m152 49 c-6 -6 -9
-18 -6 -25 3 -8 -1 -14 -11 -14 -8 0 -20 -9 -26 -20 -6 -11 -20 -20 -30 -20
-24 0 -26 13 -5 30 21 17 12 24 -14 10 -16 -8 -21 -8 -21 2 0 17 -17 -2 -23
-27 -4 -16 -5 -15 -6 5 -1 34 16 60 28 41 7 -11 13 -11 32 0 13 7 31 12 41 11
9 -2 19 2 23 8 3 5 11 10 18 10 8 0 8 -3 0 -11z m187 -3 c0 -8 9 -18 20 -21
11 -3 20 -13 20 -21 0 -8 -9 -14 -20 -14 -11 0 -20 -4 -20 -8 0 -5 -13 -9 -30
-9 -19 0 -30 5 -30 14 0 7 -10 18 -22 23 -16 6 -18 9 -7 9 9 1 20 8 23 17 3 8
9 13 14 10 4 -2 14 -1 22 5 21 13 30 11 30 -5z m-711 -63 c14 -30 6 -41 -42
-61 -23 -10 -29 -9 -33 3 -4 8 -15 15 -25 15 -24 0 -24 5 1 30 11 11 26 17 33
14 9 -3 17 3 20 15 7 27 30 18 46 -16z m331 10 c0 -16 -4 -34 -9 -42 -7 -11
-13 -7 -25 17 -22 42 -20 52 9 52 21 0 25 -5 25 -27z m-84 -18 c20 -31 31
-105 15 -105 -18 0 -51 62 -51 98 0 38 14 41 36 7z m377 16 c9 -1 17 -8 17
-16 0 -8 6 -15 13 -15 7 0 4 -7 -7 -15 -22 -17 -56 -20 -56 -6 0 11 -56 41
-77 41 -7 0 -13 4 -13 10 0 6 22 8 53 6 28 -2 60 -5 70 -5z m-533 -39 c0 -4
-12 -16 -27 -26 -17 -10 -20 -15 -8 -11 48 18 65 18 59 1 -3 -9 -12 -16 -20
-16 -7 0 -17 -8 -23 -17 -13 -24 -95 -27 -85 -4 4 9 6 24 6 34 0 10 7 17 19
17 11 0 19 7 19 16 0 11 6 14 20 9 12 -4 20 -2 20 5 0 6 5 8 10 5 6 -3 10 -9
10 -13z m440 8 c0 -5 7 -10 15 -10 19 0 51 -32 60 -59 5 -17 2 -21 -17 -22
-13 -1 -27 0 -33 1 -5 1 -17 3 -25 4 -18 1 -54 36 -63 60 -6 14 -3 17 8 12 8
-3 23 -9 33 -12 16 -5 16 -5 0 9 -23 19 -23 27 2 27 11 0 20 -4 20 -10z m-205
-310 c3 -5 -3 -10 -15 -10 -12 0 -18 5 -15 10 3 6 10 10 15 10 5 0 12 -4 15
-10z m-98 -6 c-3 -3 -12 -4 -19 -1 -8 3 -5 6 6 6 11 1 17 -2 13 -5z m-150 -51
l25 -32 -54 2 c-48 2 -53 4 -56 26 -7 50 48 53 85 4z m193 28 c3 0 13 -14 23
-30 l17 -30 -45 2 c-40 2 -49 6 -66 34 l-20 31 43 -3 c24 -1 45 -3 48 -4z
m230 -21 c11 -15 20 -30 20 -33 0 -2 -18 -5 -40 -5 -31 -1 -44 5 -60 25 -28
36 -26 41 20 41 32 1 43 -4 60 -28z"/>
<path d="M2340 4144 c0 -1049 2 -1082 59 -1249 56 -160 123 -266 242 -381 85
-82 158 -131 277 -186 123 -57 336 -111 477 -120 l40 -3 0 45 c0 43 -2 45 -30
48 -83 8 -300 57 -376 86 -230 86 -396 231 -498 434 -17 34 -46 115 -64 180
l-32 117 0 945 0 945 263 3 262 2 0 -737 c0 -750 7 -962 36 -1100 43 -210 155
-332 360 -392 39 -12 74 -21 78 -21 3 0 6 22 6 48 l0 49 -52 12 c-138 31 -239
124 -282 260 -42 133 -46 231 -46 1127 l0 844 -360 0 -360 0 0 -956z"/>
<path d="M4212 4568 l3 -533 42 -3 43 -3 2 488 3 488 265 0 265 0 5 -485 5
-485 43 -3 42 -3 0 535 0 536 -360 0 -360 0 2 -532z"/>
<path d="M2493 4033 c3 -908 4 -919 25 -1002 80 -301 258 -496 547 -595 107
-36 211 -61 313 -72 l62 -7 0 170 0 170 -82 22 c-308 84 -425 264 -448 686 -5
94 -10 479 -10 858 l0 687 -205 0 -206 0 4 -917z"/>
<path d="M4365 4938 c-3 -7 -4 -213 -3 -458 l3 -445 205 0 205 0 3 458 2 457
-205 0 c-155 0 -207 -3 -210 -12z"/>
<path d="M9560 3746 c0 -390 7 -464 53 -601 13 -38 38 -97 54 -129 l30 -60
-31 -15 c-43 -22 -106 -146 -106 -208 0 -101 89 -193 272 -282 l119 -58 -38
-31 c-37 -30 -38 -31 -41 -111 -7 -147 8 -154 343 -149 219 3 235 4 262 24 26
20 28 26 31 108 l3 88 -38 34 c-42 39 -41 43 37 75 150 62 280 169 304 248 18
60 12 92 -32 176 -26 48 -47 75 -68 85 l-30 16 28 54 c37 75 85 222 98 300 5
36 10 230 10 433 l0 367 -630 0 -630 0 0 -364z m1250 119 l0 -235 -620 0 -620
0 0 235 0 235 620 0 620 0 0 -235z m-936 -311 c12 -12 16 -38 16 -112 l0 -97
-47 -2 c-27 0 -65 -4 -86 -8 l-38 -7 3 103 c3 102 3 104 28 107 13 2 33 10 44
18 27 18 61 18 80 -2z m120 1 c15 -8 37 -15 47 -15 17 0 19 -9 19 -105 0 -117
3 -114 -75 -93 -36 10 -50 10 -65 0 -19 -12 -20 -9 -20 97 0 94 3 111 18 120
24 14 42 13 76 -4z m467 5 c17 -10 19 -22 19 -113 l0 -102 -47 -2 c-27 0 -65
-4 -86 -8 l-38 -7 3 103 c3 102 3 104 28 107 13 2 33 10 44 18 24 17 50 18 77
4z m125 -4 c11 -8 31 -16 44 -18 25 -3 25 -4 25 -103 l0 -100 -35 3 c-19 2
-56 4 -82 5 l-48 2 0 102 c0 87 3 104 18 112 24 15 54 13 78 -3z m-486 -141
l0 -104 -92 -5 c-51 -3 -102 -5 -113 -5 -11 0 -62 2 -112 5 l-93 5 0 105 c0
63 4 104 10 104 6 0 10 -40 10 -100 l0 -100 34 0 c18 0 48 5 65 11 25 9 38 9
56 -1 19 -10 30 -10 54 0 23 9 38 9 62 1 18 -6 47 -11 65 -11 l34 0 0 106 c0
67 4 103 10 99 6 -3 10 -52 10 -110z m234 -95 c18 0 48 5 65 11 25 9 38 9 56
-1 19 -10 30 -10 54 0 23 9 38 9 62 1 18 -6 47 -11 65 -11 l34 0 0 106 c0 67
4 103 10 99 6 -3 10 -52 10 -110 l0 -104 -92 -5 c-51 -3 -102 -5 -113 -5 -11
0 -62 2 -112 5 l-93 5 0 103 c0 137 14 146 18 12 l3 -106 33 0z m-214 81 l0
-120 -97 -5 c-120 -7 -133 -7 -260 0 l-103 5 0 115 c0 69 4 114 10 114 6 0 10
-43 10 -109 l0 -108 113 -4 c61 -2 157 -2 212 1 l100 5 3 113 c1 61 5 112 7
112 3 0 5 -54 5 -119z m152 7 l3 -113 105 -5 c58 -3 152 -3 210 0 l105 5 3
113 c4 149 22 138 22 -14 l0 -114 -95 0 c-57 0 -103 -5 -115 -12 -15 -10 -26
-10 -53 0 -18 7 -72 12 -120 12 l-87 0 0 120 c0 154 18 160 22 8z m71 -264
c113 -57 148 -163 90 -271 -66 -122 -177 -247 -234 -264 -113 -34 -80 60 56
159 28 20 53 41 57 46 9 14 0 26 -20 25 -14 0 -13 -2 3 -8 14 -6 -4 -10 -55
-13 -85 -6 -110 1 -86 22 11 8 33 11 64 8 l48 -5 -23 23 c-28 28 -29 70 -3
104 11 14 20 29 20 35 0 5 -11 -7 -25 -27 -27 -40 -31 -68 -15 -99 10 -19 9
-19 -22 -6 -26 10 -34 21 -39 48 l-6 34 -2 -37 c-1 -50 -58 -98 -115 -98 -40
0 -41 15 -1 22 34 6 32 61 -2 88 -23 18 -36 21 -76 16 -41 -4 -47 -3 -45 12 2
11 -5 18 -18 20 -31 4 -36 37 -10 60 34 32 116 72 148 72 16 0 39 7 51 15 35
23 137 45 185 40 23 -3 57 -12 75 -21z m-602 -256 c18 -29 35 -56 37 -60 7
-15 -37 -8 -54 9 -17 18 -24 14 -55 -37 -8 -13 -10 -13 -19 0 -19 29 -12 89
15 115 13 14 28 25 33 25 5 0 24 -24 43 -52z m973 31 c21 -16 26 -29 26 -62 0
-63 -13 -75 -39 -38 -21 29 -23 30 -46 15 -13 -9 -31 -14 -39 -12 -12 2 -8 15
22 60 20 32 40 58 43 58 4 0 18 -9 33 -21z m-666 -20 c2 -11 -6 -18 -25 -21
-15 -3 -36 -9 -47 -13 -29 -12 -16 27 14 42 31 16 54 13 58 -8z m-418 -80 c0
-27 57 -96 116 -141 32 -24 107 -68 167 -98 132 -66 149 -85 155 -175 2 -36 2
-65 -1 -65 -3 0 -17 10 -30 23 -14 12 -70 41 -125 65 -285 123 -388 247 -320
387 21 43 37 45 38 4z m1180 -88 c0 -76 -58 -151 -173 -220 -21 -13 -90 -47
-154 -77 -64 -29 -126 -63 -139 -75 l-24 -22 0 70 c0 92 12 107 142 170 172
84 276 175 294 256 l6 31 24 -44 c14 -27 23 -63 24 -89z m-1064 79 l32 -14
-25 -38 c-14 -21 -28 -38 -31 -38 -10 0 -52 43 -52 52 0 12 34 58 40 54 3 -1
19 -9 36 -16z m952 -12 c15 -26 15 -28 -8 -53 -13 -14 -27 -25 -31 -25 -4 0
-17 16 -29 36 -12 19 -24 33 -27 30 -3 -2 7 -22 21 -42 l26 -38 -28 -23 c-15
-12 -72 -45 -127 -74 -144 -73 -161 -85 -180 -125 -23 -49 -18 -163 9 -193
l19 -21 -146 0 c-81 0 -147 3 -147 8 0 4 7 16 15 26 19 25 20 135 1 179 -16
39 -38 54 -177 124 -58 29 -116 64 -129 77 l-23 25 29 45 c16 25 31 46 34 45
3 0 27 -27 54 -60 56 -69 171 -173 268 -243 l68 -48 82 58 c46 32 135 110 198
173 63 64 124 117 135 119 11 1 29 9 40 17 26 18 33 15 53 -17z m-685 -433
c20 -14 37 -33 37 -42 0 -24 -30 -53 -55 -53 -36 0 -85 21 -95 40 -8 15 -3 24
28 49 20 17 39 30 42 31 3 0 22 -11 43 -25z m442 -8 c25 -22 36 -38 30 -46
-10 -17 -68 -41 -98 -41 -32 0 -61 33 -52 59 5 17 59 60 76 61 3 0 23 -15 44
-33z m-532 -82 c29 -12 85 -15 267 -15 182 0 238 3 267 15 19 8 37 15 39 15 7
0 4 -125 -4 -136 -20 -30 -55 -34 -301 -34 -263 0 -295 5 -305 44 -6 23 -8
126 -2 126 2 0 20 -7 39 -15z"/>
<path d="M10173 4066 c-10 -11 -9 -15 2 -20 8 -3 22 -3 30 0 12 5 12 8 0 20
-16 17 -17 17 -32 0z"/>
<path d="M10030 4030 c0 -5 5 -10 10 -10 6 0 10 5 10 10 0 6 -4 10 -10 10 -5
0 -10 -4 -10 -10z"/>
<path d="M10330 4030 c0 -5 5 -10 10 -10 6 0 10 5 10 10 0 6 -4 10 -10 10 -5
0 -10 -4 -10 -10z"/>
<path d="M9980 4020 c0 -5 5 -10 10 -10 6 0 10 5 10 10 0 6 -4 10 -10 10 -5 0
-10 -4 -10 -10z"/>
<path d="M10070 4020 c0 -5 5 -10 10 -10 6 0 10 5 10 10 0 6 -4 10 -10 10 -5
0 -10 -4 -10 -10z"/>
<path d="M10290 4020 c0 -5 5 -10 10 -10 6 0 10 5 10 10 0 6 -4 10 -10 10 -5
0 -10 -4 -10 -10z"/>
<path d="M10380 4020 c0 -5 5 -10 10 -10 6 0 10 5 10 10 0 6 -4 10 -10 10 -5
0 -10 -4 -10 -10z"/>
<path d="M10116 4011 c-4 -5 -2 -12 3 -15 5 -4 12 -2 15 3 4 5 2 12 -3 15 -5
4 -12 2 -15 -3z"/>
<path d="M10152 4003 c-2 -27 -11 -28 -75 -8 -118 35 -166 -57 -83 -160 21
-27 26 -28 50 -17 26 12 38 36 12 26 -18 -7 -29 23 -12 33 8 5 15 16 17 26 6
26 23 26 27 0 2 -14 8 -20 18 -16 9 3 14 -2 14 -17 0 -11 -4 -18 -10 -15 -5 3
-10 2 -10 -4 0 -12 36 -24 49 -16 6 3 8 12 5 20 -6 16 17 45 36 45 27 0 54
-50 28 -50 -7 0 -5 -5 5 -11 19 -11 57 -3 57 12 0 6 -4 8 -9 5 -5 -3 -12 1
-15 10 -4 11 1 18 14 21 11 3 20 11 20 19 0 7 5 16 11 20 13 8 29 -14 23 -31
-3 -7 2 -15 12 -19 13 -5 14 -9 4 -21 -7 -8 -16 -12 -21 -9 -5 3 -9 0 -9 -6 0
-6 12 -16 26 -22 23 -11 28 -9 49 18 56 68 56 136 0 159 -29 13 -40 13 -82 0
-64 -20 -73 -19 -75 8 -1 12 -4 -3 -7 -33 -6 -51 -8 -55 -33 -58 -26 -3 -27
-2 -31 55 -2 32 -4 48 -5 36z m-73 -22 c9 -6 -1 -14 -35 -26 -27 -10 -54 -24
-60 -31 -12 -15 -24 -8 -24 13 0 39 79 69 119 44z m321 -11 c29 -29 24 -68 -5
-42 -6 5 -32 17 -59 27 -34 12 -44 20 -35 26 25 16 78 10 99 -11z m-264 -25
c18 -14 18 -14 0 -15 -15 0 -16 -3 -6 -15 18 -22 -3 -18 -30 5 -13 11 -28 19
-34 17 -19 -6 -47 -68 -40 -89 4 -15 3 -18 -6 -13 -8 5 -10 20 -6 44 l5 36
-19 -25 c-13 -17 -20 -20 -20 -10 0 26 17 43 62 61 55 22 70 22 94 4z m197 -3
c50 -19 67 -35 67 -62 0 -10 -7 -7 -20 10 l-19 25 5 -36 c4 -24 2 -39 -6 -44
-9 -5 -10 -2 -6 13 7 21 -21 83 -40 89 -6 2 -21 -6 -34 -17 -28 -24 -48 -27
-29 -3 12 15 12 16 -3 10 -10 -3 -18 -2 -18 3 0 10 29 29 45 30 6 0 32 -8 58
-18z"/>
<path d="M10180 4010 c0 -5 5 -10 10 -10 6 0 10 5 10 10 0 6 -4 10 -10 10 -5
0 -10 -4 -10 -10z"/>
<path d="M10246 4011 c-4 -5 -2 -12 3 -15 5 -4 12 -2 15 3 4 5 2 12 -3 15 -5
4 -12 2 -15 -3z"/>
<path d="M9940 4000 c0 -5 5 -10 10 -10 6 0 10 5 10 10 0 6 -4 10 -10 10 -5 0
-10 -4 -10 -10z"/>
<path d="M10420 4000 c0 -5 5 -10 10 -10 6 0 10 5 10 10 0 6 -4 10 -10 10 -5
0 -10 -4 -10 -10z"/>
<path d="M10180 3970 c0 -5 5 -10 10 -10 6 0 10 5 10 10 0 6 -4 10 -10 10 -5
0 -10 -4 -10 -10z"/>
<path d="M9920 3960 c0 -5 5 -10 10 -10 6 0 10 5 10 10 0 6 -4 10 -10 10 -5 0
-10 -4 -10 -10z"/>
<path d="M10440 3960 c0 -5 5 -10 10 -10 6 0 10 5 10 10 0 6 -4 10 -10 10 -5
0 -10 -4 -10 -10z"/>
<path d="M10180 3930 c0 -5 5 -10 10 -10 6 0 10 5 10 10 0 6 -4 10 -10 10 -5
0 -10 -4 -10 -10z"/>
<path d="M9920 3910 c0 -5 5 -10 10 -10 6 0 10 5 10 10 0 6 -4 10 -10 10 -5 0
-10 -4 -10 -10z"/>
<path d="M10440 3910 c0 -5 5 -10 10 -10 6 0 10 5 10 10 0 6 -4 10 -10 10 -5
0 -10 -4 -10 -10z"/>
<path d="M9935 3870 c-3 -5 1 -10 9 -10 9 0 16 5 16 10 0 6 -4 10 -9 10 -6 0
-13 -4 -16 -10z"/>
<path d="M10422 3871 c2 -7 7 -12 11 -12 12 1 9 15 -3 20 -7 2 -11 -2 -8 -8z"/>
<path d="M10061 3804 c-40 -11 -57 -11 -67 -3 -15 12 -18 2 -6 -18 6 -9 18 -8
52 4 31 11 78 17 150 17 72 0 119 -6 150 -17 34 -12 46 -13 52 -4 13 20 9 30
-6 18 -10 -9 -28 -8 -72 4 -72 19 -182 18 -253 -1z"/>
<path d="M10180 3790 c0 -5 5 -10 10 -10 6 0 10 5 10 10 0 6 -4 10 -10 10 -5
0 -10 -4 -10 -10z"/>
<path d="M10090 3780 c0 -5 5 -10 10 -10 6 0 10 5 10 10 0 6 -4 10 -10 10 -5
0 -10 -4 -10 -10z"/>
<path d="M10270 3780 c0 -5 5 -10 10 -10 6 0 10 5 10 10 0 6 -4 10 -10 10 -5
0 -10 -4 -10 -10z"/>
<path d="M10000 3750 c0 -5 5 -10 10 -10 6 0 10 5 10 10 0 6 -4 10 -10 10 -5
0 -10 -4 -10 -10z"/>
<path d="M10060 3749 c-19 -6 -41 -15 -47 -21 -15 -12 -17 -48 -3 -48 5 0 7 6
4 14 -22 58 266 77 341 22 17 -12 18 -16 5 -32 -13 -18 -13 -18 3 -3 22 19 14
42 -21 59 -34 17 -235 23 -282 9z"/>
<path d="M10360 3750 c0 -5 5 -10 10 -10 6 0 10 5 10 10 0 6 -4 10 -10 10 -5
0 -10 -4 -10 -10z"/>
<path d="M10092 3721 c-120 -31 -2 -83 150 -67 91 9 122 33 76 57 -27 15 -181
21 -226 10z m176 -10 c77 -15 67 -34 -24 -46 -83 -10 -213 10 -193 30 20 19
149 29 217 16z"/>
<path d="M10310 3120 c8 -5 22 -10 30 -10 13 0 13 1 0 10 -8 5 -22 10 -30 10
-13 0 -13 -1 0 -10z"/>
<path d="M10105 3100 c-8 -13 5 -13 25 0 13 8 13 10 -2 10 -9 0 -20 -4 -23
-10z"/>
<path d="M10320 3090 c8 -5 20 -10 25 -10 6 0 3 5 -5 10 -8 5 -19 10 -25 10
-5 0 -3 -5 5 -10z"/>
<path d="M9975 3080 c-3 -5 1 -10 10 -10 9 0 13 5 10 10 -3 6 -8 10 -10 10 -2
0 -7 -4 -10 -10z"/>
<path d="M10115 3070 c-8 -13 5 -13 25 0 13 8 13 10 -2 10 -9 0 -20 -4 -23
-10z"/>
<path d="M10380 3076 c0 -2 7 -9 15 -16 9 -7 15 -8 15 -2 0 5 -7 12 -15 16 -8
3 -15 4 -15 2z"/>
<path d="M9924 3026 c-16 -13 -17 -17 -5 -28 12 -11 13 -11 6 0 -4 8 0 19 11
27 11 8 16 15 13 15 -3 0 -14 -6 -25 -14z"/>
<path d="M10385 3030 c3 -5 8 -10 11 -10 2 0 4 5 4 10 0 6 -5 10 -11 10 -5 0
-7 -4 -4 -10z"/>
<path d="M10233 2703 c9 -2 23 -2 30 0 6 3 -1 5 -18 5 -16 0 -22 -2 -12 -5z"/>
<path d="M10203 2673 c9 -2 23 -2 30 0 6 3 -1 5 -18 5 -16 0 -22 -2 -12 -5z"/>
<path d="M9626 2699 c-4 -28 -5 -53 -3 -55 2 -2 19 10 38 26 19 16 30 29 25
30 -6 0 -20 -10 -34 -22 l-24 -23 8 30 c4 17 11 33 16 36 5 3 3 11 -5 18 -12
9 -16 3 -21 -40z"/>
<path d="M9683 2640 c-17 -32 -18 -41 -8 -50 10 -8 13 -6 11 7 0 12 5 17 17
17 14 -2 15 1 6 12 -6 7 -7 19 -3 25 5 9 11 7 21 -6 7 -11 13 -14 13 -8 0 5
-8 17 -18 26 -16 15 -19 13 -39 -23z"/>
<path d="M9760 2612 c0 -10 -7 -27 -15 -39 -11 -16 -12 -23 -2 -30 24 -19 37
-24 37 -14 0 6 -7 11 -16 11 -18 0 -11 34 12 61 8 9 11 19 7 22 -12 13 -23 7
-23 -11z"/>
<path d="M9814 2554 c-14 -33 -14 -39 -1 -52 20 -20 42 -10 61 27 13 23 13 31
3 37 -6 4 -9 4 -5 -1 10 -11 -23 -65 -39 -65 -18 0 -16 31 2 57 10 14 12 24 5
28 -6 4 -17 -10 -26 -31z"/>
<path d="M9905 2540 c-3 -6 1 -7 9 -4 9 3 16 1 16 -4 0 -20 -23 -62 -34 -62
-6 0 -5 -4 3 -9 11 -7 19 0 33 31 15 33 16 43 6 50 -17 10 -26 10 -33 -2z"/>
<path d="M9961 2514 c0 -11 3 -14 6 -6 3 7 2 16 -1 19 -3 4 -6 -2 -5 -13z"/>
<path d="M10693 2662 c32 -35 14 -89 -19 -61 -10 8 -14 24 -11 42 4 27 3 28
-10 12 -17 -24 -17 -28 6 -56 16 -20 23 -22 38 -13 33 20 25 94 -10 94 -5 0
-3 -8 6 -18z"/>
<path d="M10611 2614 c0 -11 3 -14 6 -6 3 7 2 16 -1 19 -3 4 -6 -2 -5 -13z"/>
<path d="M10562 2602 c-10 -3 -4 -15 19 -38 35 -36 49 -36 48 -1 0 21 -1 21
-8 2 -8 -19 -9 -18 -27 11 -10 17 -25 29 -32 26z"/>
<path d="M10494 2562 c-15 -9 -29 -102 -16 -102 6 0 8 8 5 19 -6 25 17 39 31
19 13 -18 56 -7 56 14 0 10 -3 9 -9 -1 -6 -9 -16 -11 -27 -7 -18 7 -18 8 1 23
20 15 20 15 -2 8 -22 -6 -28 2 -24 28 1 9 -1 9 -15 -1z"/>
<path d="M9991 2208 c-19 -52 -22 -68 -12 -68 6 0 10 5 9 12 -2 6 5 14 15 16
10 2 17 -2 17 -12 0 -9 6 -16 14 -16 13 0 13 4 0 28 -7 15 -14 32 -14 39 0 23
-20 24 -29 1z m19 -13 c0 -8 -4 -15 -10 -15 -5 0 -7 7 -4 15 4 8 8 15 10 15 2
0 4 -7 4 -15z"/>
<path d="M10070 2185 c0 -25 5 -45 10 -45 6 0 10 18 10 40 0 23 5 40 11 40 7
0 9 -9 6 -22 -7 -24 8 -58 25 -58 7 0 6 5 -2 15 -7 8 -10 25 -6 39 4 17 1 26
-10 30 -36 14 -44 7 -44 -39z"/>
<path d="M10160 2186 c0 -37 3 -46 18 -46 30 0 40 14 38 50 -1 30 -5 35 -29
38 -26 3 -27 1 -27 -42z m40 19 c0 -8 -4 -15 -10 -15 -5 0 -10 7 -10 15 0 8 5
15 10 15 6 0 10 -7 10 -15z m2 -40 c0 -5 -5 -11 -11 -13 -6 -2 -11 4 -11 13 0
9 5 15 11 13 6 -2 11 -8 11 -13z"/>
<path d="M10256 2214 c-9 -8 -16 -22 -16 -29 0 -18 28 -45 45 -45 8 0 22 11
30 24 31 47 -20 89 -59 50z m49 -29 c0 -23 -4 -30 -20 -30 -21 0 -31 25 -21
51 11 28 41 12 41 -21z"/>
<path d="M10355 2185 c0 -27 5 -45 12 -45 6 0 9 9 6 20 -3 11 -1 20 5 20 6 0
14 -9 17 -20 3 -11 11 -20 16 -20 6 0 7 6 2 12 -4 7 -7 26 -8 43 0 24 -5 31
-25 33 -23 3 -25 0 -25 -43z m37 20 c0 -5 -5 -11 -11 -13 -6 -2 -11 4 -11 13
0 9 5 15 11 13 6 -2 11 -8 11 -13z"/>
<path d="M15343 4061 c-18 -42 -11 -49 23 -22 19 15 41 21 74 21 l47 0 6 -77
c3 -43 2 -111 -1 -152 -7 -74 -7 -74 -41 -86 -51 -17 -26 -24 76 -22 95 2 129
12 75 23 -40 8 -44 28 -40 189 l3 120 52 3 c47 3 56 0 78 -24 l25 -27 -1 29
c-1 60 1 59 -188 59 l-174 0 -14 -34z"/>
<path d="M12040 4080 c-24 -8 -24 -8 -3 -9 35 -2 43 -31 43 -158 0 -130 7
-151 60 -178 42 -22 156 -20 200 3 49 26 69 88 70 215 0 94 1 98 25 109 41 19
29 26 -44 24 -75 -1 -99 -10 -53 -19 36 -7 42 -25 42 -135 0 -136 -32 -182
-127 -182 -40 0 -58 5 -80 24 -26 23 -28 30 -32 116 -4 126 3 159 40 173 16 6
29 15 29 19 0 10 -137 8 -170 -2z"/>
<path d="M12540 4080 c0 -5 5 -10 10 -10 6 0 19 -9 30 -20 17 -17 20 -33 20
-114 0 -143 -8 -183 -36 -190 -49 -13 -21 -23 56 -22 49 0 79 5 77 11 -2 5
-12 12 -23 14 -40 7 -44 20 -44 135 l0 111 138 -138 c75 -75 143 -137 150
-137 9 0 12 39 12 159 0 132 3 162 16 175 8 9 20 16 25 16 5 0 9 5 9 10 0 6
-32 10 -75 10 -43 0 -75 -4 -75 -10 0 -5 11 -10 25 -10 37 0 46 -29 43 -141
l-3 -101 -135 131 c-129 125 -137 130 -177 131 -24 0 -43 -4 -43 -10z"/>
<path d="M13060 4079 c0 -5 7 -9 15 -9 8 0 24 -9 35 -20 18 -18 20 -33 20
-141 0 -66 -4 -129 -10 -139 -5 -10 -23 -21 -40 -25 -61 -13 -27 -25 75 -25
63 0 105 4 105 10 0 6 -10 10 -23 10 -42 0 -47 16 -47 150 0 153 4 169 41 177
59 11 26 21 -71 20 -55 0 -100 -4 -100 -8z"/>
<path d="M13320 4081 c0 -3 14 -13 32 -21 25 -12 46 -44 116 -180 46 -91 87
-164 89 -163 2 1 30 53 62 115 87 169 114 212 145 226 15 8 26 15 24 17 -11 9
-148 14 -148 5 0 -5 6 -10 14 -10 7 0 19 -7 26 -15 10 -13 3 -34 -41 -121 -30
-59 -59 -107 -64 -108 -10 -1 -115 200 -115 220 0 7 10 14 22 17 12 4 20 8 18
10 -8 7 -180 15 -180 8z"/>
<path d="M13840 4079 c0 -5 7 -9 15 -9 27 0 35 -38 34 -157 -1 -140 -7 -167
-37 -171 -12 -2 -20 -8 -17 -13 4 -5 73 -9 154 -9 165 0 168 1 178 67 l5 38
-29 -35 c-28 -32 -35 -34 -101 -38 -64 -4 -71 -2 -82 17 -6 12 -10 45 -8 74
l3 52 44 3 c60 4 88 -4 96 -28 12 -38 25 -20 25 35 0 58 -5 66 -25 39 -9 -13
-29 -17 -76 -18 -60 -1 -64 0 -67 23 -2 13 -1 44 3 68 l6 44 71 -3 c59 -2 73
-6 82 -23 6 -11 12 -22 14 -25 6 -9 22 26 22 50 l0 25 -155 1 c-85 1 -155 -3
-155 -7z"/>
<path d="M14270 4080 c0 -3 10 -10 23 -15 21 -10 22 -14 22 -160 0 -146 -1
-150 -22 -160 -42 -18 -24 -25 62 -25 82 0 112 13 61 26 -26 6 -36 36 -36 105
0 37 2 39 30 39 17 0 30 -4 30 -8 0 -20 118 -137 155 -153 44 -20 85 -25 85
-9 0 6 -6 10 -14 10 -22 0 -71 45 -121 110 l-44 57 37 24 c26 17 38 33 40 53
6 51 -6 73 -52 95 -37 18 -59 21 -150 19 -58 -1 -106 -5 -106 -8z m195 -25
c89 -36 56 -141 -42 -133 l-38 3 4 65 c4 82 15 91 76 65z"/>
<path d="M14780 4072 c-37 -20 -60 -53 -60 -88 0 -35 36 -70 97 -95 88 -35
103 -47 103 -83 0 -44 -16 -56 -71 -56 -36 0 -55 6 -78 26 -17 14 -31 32 -31
40 0 8 -5 14 -11 14 -8 0 -9 -11 -5 -31 3 -17 6 -41 6 -53 0 -19 6 -21 75 -24
111 -4 175 32 175 99 0 42 -37 78 -116 114 -78 36 -102 62 -84 95 13 24 41 40
70 40 35 0 79 -29 86 -55 10 -41 24 -28 24 23 l0 47 -73 3 c-56 2 -80 -2 -107
-16z"/>
<path d="M15065 4082 c-3 -3 9 -11 27 -16 29 -10 34 -16 40 -56 8 -56 8 -185
-1 -225 -5 -22 -14 -32 -39 -39 -17 -5 -32 -13 -32 -17 0 -13 197 -11 205 1 3
6 -4 10 -17 10 -47 0 -49 7 -46 166 l3 149 33 10 c17 5 32 12 32 16 0 9 -197
9 -205 1z"/>
<path d="M15835 4081 c-48 -5 -55 -7 -34 -13 15 -4 57 -44 98 -90 l71 -83 -2
-75 c-3 -66 -5 -75 -23 -78 -11 -2 -24 -8 -29 -13 -6 -5 27 -9 82 -9 55 0 92
4 92 10 0 6 -8 10 -18 10 -32 0 -42 22 -42 89 0 63 2 69 55 148 31 45 64 85
75 88 39 12 19 22 -45 23 -65 1 -86 -10 -40 -22 14 -4 25 -10 25 -15 0 -4 -18
-34 -41 -65 l-41 -57 -24 22 c-37 34 -77 97 -69 108 3 6 13 11 21 11 8 0 14 5
14 10 0 10 -24 11 -125 1z"/>
<path d="M16652 4068 c-82 -39 -120 -122 -97 -211 21 -84 94 -137 186 -137
132 0 234 117 200 231 -35 116 -174 173 -289 117z m125 -13 c31 -9 80 -68 92
-112 32 -116 -13 -193 -112 -193 -44 0 -54 4 -87 38 -87 87 -76 236 20 269 34
11 42 11 87 -2z"/>
<path d="M17035 4082 c-3 -3 5 -10 18 -16 21 -11 22 -18 25 -141 3 -149 0
-171 -28 -180 -46 -14 -14 -25 75 -25 95 0 124 12 63 25 -42 9 -48 19 -48 80
0 73 7 79 75 70 45 -5 58 -11 62 -26 10 -38 23 -18 23 36 0 30 -2 55 -5 55 -3
0 -14 -9 -25 -20 -15 -15 -33 -20 -70 -20 l-50 0 0 71 0 71 67 -4 c54 -3 69
-8 81 -26 21 -32 32 -27 32 16 l0 37 -145 1 c-80 0 -147 -2 -150 -4z"/>
<path d="M3500 2770 l0 -1210 300 0 300 0 -2 365 c-3 318 -1 366 12 370 8 2
184 13 390 25 206 11 419 25 473 30 54 6 118 10 142 10 l45 0 0 276 c0 258 -1
275 -17 270 -10 -3 -133 -12 -273 -20 -140 -8 -347 -21 -460 -28 -113 -7 -227
-13 -255 -13 l-50 0 -3 298 -2 297 570 0 570 0 0 270 0 270 -870 0 -870 0 0
-1210z m1665 940 l0 -195 -567 -3 -568 -2 0 -370 0 -370 38 0 c58 0 703 39
832 50 63 5 132 10 153 10 l37 0 0 -199 0 -200 -42 -5 c-24 -3 -178 -13 -343
-21 -165 -8 -349 -20 -410 -25 -60 -5 -145 -12 -187 -16 l-78 -6 -2 -361 -3
-362 -230 0 -230 0 -3 1129 c-2 897 0 1131 10 1138 7 4 369 7 803 5 l790 -2 0
-195z"/>
<path d="M3630 2770 l0 -1080 170 0 170 0 0 359 c0 198 4 362 8 365 5 3 134
12 288 21 153 8 371 22 484 30 113 8 223 16 245 18 l40 2 3 138 3 137 -68 0
c-71 -1 -374 -19 -743 -45 -118 -8 -225 -15 -237 -15 l-23 0 0 435 0 435 570
0 570 0 0 140 0 140 -740 0 -740 0 0 -1080z"/>
<path d="M6740 3864 l-65 -66 297 -292 296 -293 -296 -296 -297 -297 65 -65
c35 -36 68 -64 71 -63 4 2 141 133 304 292 l296 289 295 -294 294 -294 67 68
68 67 -295 295 -295 295 295 295 295 295 -67 67 -68 68 -72 -70 c-40 -38 -174
-170 -298 -292 l-225 -223 -290 290 c-159 160 -295 290 -300 290 -6 0 -40 -30
-75 -66z"/>
<path d="M4206 3343 c-4 -27 -16 -93 -28 -148 -24 -108 -35 -242 -21 -256 14
-14 68 79 97 166 22 68 46 208 46 267 0 15 -9 18 -44 18 l-45 0 -5 -47z"/>
<path d="M4366 3381 c-3 -4 -10 -51 -16 -102 -6 -52 -17 -120 -25 -151 -18
-66 -68 -183 -84 -192 -6 -4 -11 -13 -11 -19 0 -10 45 -10 203 0 111 6 221 12
243 12 36 1 43 5 53 29 21 51 41 177 47 305 l7 127 -206 0 c-113 0 -208 -4
-211 -9z"/>
<path d="M4840 3301 c0 -76 -28 -287 -46 -344 -5 -16 0 -18 43 -15 l48 3 18
70 c12 45 20 125 24 223 l6 152 -47 0 -46 0 0 -89z"/>
<path d="M11273 3282 c-23 -66 -28 -93 -20 -101 17 -17 23 -14 37 19 21 51 69
72 174 78 149 7 136 39 136 -346 0 -180 -3 -337 -6 -348 -7 -26 -38 -41 -104
-50 -46 -6 -50 -9 -44 -28 4 -11 7 -21 8 -21 0 0 99 1 219 3 204 3 217 5 217
22 0 19 -10 24 -72 35 -24 4 -42 14 -50 28 -15 25 -25 536 -13 644 l7 63 96
-1 c128 0 161 -12 187 -66 22 -46 23 -47 44 -34 14 9 13 20 -15 164 -6 28 -31
36 -50 17 -12 -12 -653 -8 -694 4 -24 7 -26 4 -57 -82z"/>
<path d="M16321 3285 c-17 -47 -31 -90 -31 -94 0 -8 31 -25 34 -19 30 78 71
100 195 105 56 2 102 0 111 -6 13 -9 15 -59 15 -350 0 -390 6 -365 -94 -384
-53 -10 -61 -15 -59 -32 2 -13 10 -20 26 -19 12 0 110 1 217 2 185 2 195 3
195 21 0 20 -8 24 -67 36 -17 3 -37 13 -43 20 -22 26 -32 240 -23 480 l8 230
111 0 c129 0 154 -9 180 -66 18 -42 26 -46 42 -26 7 8 5 38 -6 97 -16 82 -18
85 -42 81 -47 -8 -695 -6 -716 3 -20 7 -24 0 -53 -79z"/>
<path d="M12515 3347 c-114 -38 -230 -137 -278 -237 -126 -260 30 -582 305
-631 136 -24 269 17 377 117 70 64 117 148 137 246 40 192 -63 396 -243 481
-59 27 -80 32 -163 34 -59 2 -110 -2 -135 -10z m192 -84 c175 -82 270 -394
175 -579 -70 -138 -195 -181 -331 -113 -120 60 -199 201 -208 375 -9 149 30
253 115 309 73 48 159 51 249 8z"/>
<path d="M13549 3356 c-4 -4 -77 -7 -163 -7 l-156 0 0 -24 c0 -21 5 -25 30
-25 40 0 67 -29 75 -82 3 -24 5 -179 3 -346 l-3 -303 -25 -19 c-14 -11 -40
-22 -57 -26 -18 -3 -33 -9 -33 -13 1 -22 29 -26 203 -26 161 0 187 2 187 15 0
9 -19 22 -47 33 -82 29 -78 18 -81 197 l-3 160 49 0 49 0 43 -66 c23 -36 69
-99 102 -139 119 -149 216 -213 333 -223 60 -4 65 -3 65 15 0 15 -11 23 -42
32 -57 18 -139 98 -235 234 -44 62 -88 124 -98 139 l-17 27 36 15 c101 42 151
118 144 217 -6 83 -43 134 -128 177 -51 25 -82 34 -145 38 -44 4 -83 3 -86 0z
m116 -82 c60 -28 89 -76 93 -153 6 -119 -43 -162 -192 -169 l-88 -5 3 163 c4
148 6 163 24 177 25 19 108 12 160 -13z"/>
<path d="M14485 3347 c-75 -25 -130 -60 -190 -121 -116 -116 -157 -257 -120
-414 41 -174 172 -303 337 -333 294 -53 564 215 517 512 -23 145 -116 271
-246 332 -59 27 -80 32 -163 34 -59 2 -110 -2 -135 -10z m211 -92 c120 -71
202 -253 191 -430 -13 -227 -183 -345 -365 -254 -130 64 -212 224 -212 409 0
173 78 289 208 309 61 9 125 -3 178 -34z"/>
<path d="M15828 3342 c-8 -28 -2 -32 44 -32 28 0 46 -7 63 -24 31 -31 37 -96
33 -356 l-3 -204 -285 312 -285 311 -108 1 c-106 0 -108 -1 -105 -22 2 -14 14
-25 38 -32 19 -6 43 -16 54 -22 28 -17 46 -106 46 -229 -1 -148 -17 -456 -25
-478 -4 -10 -26 -22 -51 -28 -32 -8 -44 -16 -44 -30 0 -18 10 -19 171 -19 170
0 170 0 167 22 -2 17 -12 24 -41 30 -56 12 -97 36 -107 64 -11 28 -12 378 -2
463 l7 54 274 -298 c151 -163 283 -308 294 -321 11 -15 29 -24 45 -24 l27 0 2
365 c1 247 5 376 13 400 13 39 35 55 74 55 21 0 26 5 26 25 0 25 -1 25 -92 25
-51 0 -123 3 -159 6 -61 6 -66 5 -71 -14z"/>
<path d="M17537 3336 c-115 -41 -201 -120 -255 -235 -82 -171 -41 -385 97
-514 192 -179 485 -145 648 76 62 86 87 174 81 289 -5 76 -11 100 -41 162 -45
91 -120 167 -207 208 -55 27 -79 32 -160 35 -82 3 -104 0 -163 -21z m200 -62
c85 -34 156 -122 200 -247 20 -57 25 -92 26 -172 1 -88 -2 -107 -25 -155 -63
-134 -180 -189 -310 -144 -229 77 -327 489 -160 667 65 69 174 90 269 51z"/>
</g>
</svg>
