<?xml version="1.0" standalone="no"?>
<!DOCTYPE svg PUBLIC "-//W3C//DTD SVG 20010904//EN"
 "http://www.w3.org/TR/2001/REC-SVG-20010904/DTD/svg10.dtd">
<svg version="1.0" xmlns="http://www.w3.org/2000/svg"
 width="211.000000pt" height="239.000000pt" viewBox="0 0 211.000000 239.000000"
 preserveAspectRatio="xMidYMid meet">

<g transform="translate(0.000000,239.000000) scale(0.100000,-0.100000)"
fill="#000000" stroke="none">
<path d="M346 2378 c4 -7 141 -215 304 -463 163 -247 299 -455 303 -462 4 -7
-187 -305 -468 -728 -261 -394 -475 -718 -475 -721 0 -2 103 -4 228 -4 l228 0
364 545 c201 299 367 544 370 544 3 0 105 -150 228 -334 l222 -335 225 0 c124
0 225 3 225 6 0 3 -151 229 -337 502 -185 273 -336 504 -337 512 0 8 140 225
312 483 l312 467 -228 0 -229 0 -201 -302 -201 -301 -198 301 -198 302 -228 0
c-180 0 -227 -3 -221 -12z"/>
</g>
</svg>
